<?xml version="1.0" encoding="utf-8"?>
<!-- Generator: Adobe Illustrator 25.2.0, SVG Export Plug-In . SVG Version: 6.00 Build 0)  -->
<svg version="1.1" id="Layer_1" xmlns="http://www.w3.org/2000/svg" xmlns:xlink="http://www.w3.org/1999/xlink" x="0px" y="0px"
	 viewBox="0 0 200 200" style="enable-background:new 0 0 200 200;" xml:space="preserve">
<style type="text/css">
	.st0{fill:#5B8646;}
</style>
<g>
	<path class="st0" d="M35.55,71.98c-1.55,0-2.8,1.25-2.8,2.8v14.01h-5.6V74.78c0-1.55-1.25-2.8-2.8-2.8c-1.55,0-2.8,1.25-2.8,2.8
		v14.01h-5.6V74.78c0-1.55-1.25-2.8-2.8-2.8c-1.55,0-2.8,1.25-2.8,2.8V97.2c0,3.56,2.25,6.74,5.6,7.93v64.93
		c0.12,4.59,3.81,8.29,8.41,8.41c4.59-0.12,8.29-3.81,8.41-8.41v-64.93c3.36-1.19,5.6-4.37,5.6-7.93V74.78
		C38.35,73.23,37.1,71.98,35.55,71.98z M32.75,97.2c0,1.55-1.25,2.8-2.8,2.8c-1.55,0-2.8,1.25-2.8,2.8v67.25
		c-0.1,1.51-1.3,2.71-2.8,2.8c-1.51-0.09-2.71-1.3-2.8-2.8V102.8c0-1.55-1.25-2.8-2.8-2.8c-1.55,0-2.8-1.25-2.8-2.8v-2.8h16.81V97.2
		z"/>
	<path class="st0" d="M188.46,72.48c-0.76-0.52-1.72-0.64-2.58-0.32c-0.98,0.38-24.23,9.81-24.23,72.68c0,1.55,1.26,2.8,2.8,2.8
		h10.94l-2,21.93c-0.17,2.24,0.61,4.44,2.16,6.07c1.51,1.72,3.67,2.74,5.96,2.82c4.43-0.17,7.98-3.72,8.15-8.15V74.78
		C189.67,73.86,189.22,73,188.46,72.48z M184.07,170.31c-0.14,1.35-1.2,2.41-2.55,2.55c-0.71-0.1-1.36-0.45-1.82-1
		c-0.47-0.47-0.73-1.11-0.72-1.78l2.28-24.99c0.14-1.54-0.99-2.9-2.54-3.05c-0.09-0.01-0.18-0.01-0.27-0.01h-11.19
		c0.47-40.45,10.98-56.18,16.8-61.8V170.31z"/>
	<path class="st0" d="M87.2,39.11l-2.09,12.8c-0.25,1.53,0.79,2.97,2.32,3.22c0.62,0.1,1.25-0.01,1.8-0.31L100,48.86l10.77,5.95
		c0.41,0.23,0.88,0.35,1.35,0.35c1.55,0,2.8-1.25,2.8-2.8c0-0.15-0.01-0.3-0.04-0.45l-2.09-12.8l8.82-9.04
		c1.08-1.11,1.06-2.88-0.05-3.96c-0.42-0.41-0.96-0.68-1.53-0.76l-12.07-1.85l-5.43-11.56c-0.66-1.4-2.33-2-3.73-1.34
		c-0.59,0.28-1.07,0.75-1.34,1.34L92.04,23.5l-12.07,1.85c-1.53,0.23-2.58,1.66-2.35,3.19c0.09,0.58,0.36,1.12,0.77,1.53L87.2,39.11
		z M94.36,28.82c0.92-0.14,1.72-0.73,2.11-1.58l3.53-7.52l3.53,7.51c0.4,0.85,1.19,1.44,2.11,1.58l8.16,1.25l-6,6.15
		c-0.62,0.64-0.9,1.53-0.76,2.41l1.4,8.5l-7.08-3.92c-0.84-0.46-1.87-0.46-2.71,0l-7.08,3.92l1.39-8.5
		c0.14-0.88-0.14-1.77-0.76-2.41l-6.01-6.15L94.36,28.82z"/>
	<path class="st0" d="M160.15,51.93c0.91,0.57,2.07,0.57,2.99,0c1.87-1.17,18.12-11.73,18.12-22.49c0.13-5.44-3.94-10.07-9.36-10.62
		c-3.93-0.42-7.8,1.19-10.26,4.28c-2.46-3.09-6.33-4.7-10.26-4.28c-5.41,0.55-9.49,5.18-9.36,10.62
		C142.03,40.2,158.3,50.76,160.15,51.93z M152.06,24.38c0.22-0.03,0.44-0.04,0.66-0.04c3.2,0.15,5.83,2.58,6.21,5.76
		c0.36,1.5,1.88,2.43,3.38,2.07c1.02-0.25,1.82-1.04,2.07-2.07c0.37-3.45,3.41-5.98,6.87-5.72c2.59,0.22,4.54,2.46,4.42,5.06
		c0,5.34-8.05,12.68-14.01,16.77c-5.96-4.09-14.01-11.43-14.01-16.77C147.51,26.84,149.46,24.61,152.06,24.38z"/>
	<path class="st0" d="M53.67,77.15c0.91,0.57,2.07,0.57,2.99,0c1.87-1.17,18.12-11.73,18.12-22.49c0.13-5.44-3.94-10.07-9.36-10.62
		c-3.93-0.42-7.8,1.19-10.26,4.28c-2.46-3.09-6.33-4.7-10.26-4.28c-5.41,0.55-9.49,5.18-9.36,10.62
		C35.55,65.42,51.82,75.98,53.67,77.15z M45.57,49.6c0.22-0.03,0.44-0.04,0.66-0.04c3.2,0.15,5.83,2.58,6.21,5.76
		c0.36,1.5,1.88,2.43,3.38,2.07c1.02-0.25,1.82-1.04,2.07-2.07c0.37-3.45,3.41-5.98,6.87-5.72c2.59,0.22,4.54,2.46,4.42,5.06
		c0,5.32-8.05,12.68-14.01,16.77C49.21,67.34,41.15,60,41.15,54.66C41.03,52.06,42.98,49.83,45.57,49.6z"/>
	<path class="st0" d="M100,71.98c-32.5,0-58.85,26.35-58.85,58.85c0,32.5,26.35,58.85,58.85,58.85s58.85-26.35,58.85-58.85
		C158.81,98.34,132.48,72.02,100,71.98z M100,184.06c-29.4,0-53.24-23.84-53.24-53.24S70.6,77.58,100,77.58s53.24,23.84,53.24,53.24
		C153.21,160.21,129.39,184.03,100,184.06z"/>
	<path class="st0" d="M128.25,103.46c-1.19,1-1.34,2.76-0.34,3.95c0,0,0,0,0,0c12.89,15.39,10.87,38.33-4.53,51.22
		c-15.39,12.89-38.33,10.87-51.22-4.53c-12.89-15.39-10.87-38.33,4.53-51.22c11.89-9.96,28.79-11.28,42.08-3.28
		c1.29,0.85,3.03,0.49,3.88-0.8c0.85-1.29,0.49-3.03-0.8-3.88c-0.06-0.04-0.12-0.08-0.19-0.11c-19.89-11.96-45.72-5.53-57.68,14.36
		c-11.96,19.89-5.53,45.72,14.36,57.68c19.89,11.96,45.72,5.53,57.68-14.36c9.25-15.38,7.71-34.93-3.83-48.68
		C131.2,102.61,129.43,102.46,128.25,103.46z"/>
	<path class="st0" d="M100,156.04c9.16,0.14,17.66-4.76,22.14-12.76c0.7-1.38,0.14-3.07-1.24-3.77c-1.38-0.7-3.07-0.14-3.77,1.24
		c-5.69,9.45-17.97,12.5-27.42,6.81c-2.79-1.68-5.13-4.02-6.81-6.81c-0.7-1.38-2.38-1.94-3.77-1.24c-1.38,0.7-1.94,2.38-1.24,3.77
		C82.36,151.27,90.85,156.17,100,156.04z"/>
	<path class="st0" d="M80.38,125.27c-0.01-1.55,1.24-2.81,2.79-2.82c1.55-0.01,2.81,1.24,2.82,2.79c0,1.55,1.25,2.8,2.8,2.8
		c1.55,0,2.8-1.25,2.8-2.8c0-4.64-3.76-8.41-8.41-8.41c-4.64,0-8.41,3.76-8.41,8.41c0,1.53,1.24,2.77,2.77,2.78h0.04
		C79.11,128.01,80.35,126.8,80.38,125.27z"/>
	<path class="st0" d="M125.22,125.24c0-4.64-3.76-8.41-8.41-8.41c-4.64,0-8.41,3.76-8.41,8.41c0,1.53,1.24,2.77,2.77,2.78h0.04
		c1.52-0.01,2.76-1.23,2.8-2.75c-0.01-1.55,1.24-2.81,2.79-2.82c1.55-0.01,2.81,1.24,2.82,2.79c0,1.55,1.25,2.8,2.8,2.8
		C123.97,128.04,125.22,126.79,125.22,125.24z"/>
	<path class="st0" d="M135.87,74.72c0.18,0.04,0.37,0.06,0.56,0.06c1.33,0,2.48-0.94,2.74-2.24l2.8-14.01
		c0.36-1.51-0.58-3.02-2.08-3.37c-1.51-0.36-3.02,0.58-3.37,2.08c-0.02,0.06-0.03,0.13-0.04,0.19l-2.8,14.01
		C133.38,72.95,134.36,74.42,135.87,74.72z"/>
	<path class="st0" d="M157.8,58.58C157.8,58.58,157.8,58.58,157.8,58.58c-1.21-0.97-2.97-0.77-3.94,0.43c0,0,0,0,0,0l-11.21,14.01
		c-0.97,1.21-0.77,2.97,0.44,3.94c1.21,0.97,2.97,0.77,3.94-0.44l11.21-14.01C159.2,61.31,159,59.55,157.8,58.58z"/>
	<path class="st0" d="M153.24,83.19c0.43,0,0.86-0.1,1.25-0.29l11.21-5.6c1.38-0.69,1.95-2.38,1.26-3.76
		c-0.69-1.39-2.38-1.95-3.76-1.26l-11.21,5.6c-1.39,0.69-1.95,2.37-1.26,3.76C151.2,82.59,152.18,83.19,153.24,83.19z"/>
</g>
</svg>
