<?xml version="1.0" encoding="utf-8"?>
<!-- Generator: Adobe Illustrator 25.2.0, SVG Export Plug-In . SVG Version: 6.00 Build 0)  -->
<svg version="1.1" id="Layer_1" xmlns="http://www.w3.org/2000/svg" xmlns:xlink="http://www.w3.org/1999/xlink" x="0px" y="0px"
	 viewBox="0 0 200 200" style="enable-background:new 0 0 200 200;" xml:space="preserve">
<style type="text/css">
	.st0{fill:#5B8646;}
</style>
<g>
	<path class="st0" d="M187.07,142.47h-11.48c3.3-5.19,5.72-11.16,4.62-18.27c-1.31-8.5-7.46-16.69-18.76-24.97
		c0.54-1.55,0.99-3.04,1.41-4.44c1.44-4.79,2.59-8.57,6.2-12.18c3.72-3.72,5.69-8.15,5.71-12.83c0.01-3.32-0.99-6.54-2.88-9.34
		l6.01-6.01h2.79c1.95,0,3.54-1.58,3.54-3.54s-1.58-3.54-3.54-3.54h-0.71v-0.71c0-1.95-1.58-3.54-3.54-3.54
		c-1.95,0-3.54,1.58-3.54,3.54v2.79l-6.01,6.01c-2.78-1.87-5.98-2.88-9.27-2.88c-0.02,0-0.05,0-0.07,0c-4.67,0.02-9.11,2-12.83,5.71
		c-3.61,3.61-7.39,4.75-12.18,6.2c-5.57,1.68-12.38,3.74-20.04,10.55c-15.46-4.56-30.28-5.4-44.05-2.5
		c-13.1,2.77-24.59,8.9-33.23,17.75c-13.69,14.03-18.72,33.25-13.89,52.19h-8.4c-1.95,0-3.54,1.58-3.54,3.54
		c0,13.66,11.11,24.78,24.78,24.78h131.67c13.66,0,24.78-11.11,24.78-24.78C190.61,144.06,189.02,142.47,187.07,142.47z
		 M134.59,71.26c5.05-1.52,10.27-3.1,15.14-7.97c2.37-2.37,5.08-3.63,7.85-3.64c0.01,0,0.03,0,0.04,0c2.55,0,5.03,1.09,7.01,3.07
		c1.99,1.99,3.08,4.49,3.06,7.05c-0.01,2.77-1.27,5.48-3.64,7.85c-4.87,4.87-6.44,10.09-7.97,15.14
		c-1.79,5.94-3.65,12.09-11.02,19.47c-10.43,10.43-23.05,11.29-32.14,2.2c0,0,0,0,0,0c-9.09-9.09-8.23-21.71,2.2-32.14
		C122.5,74.91,128.65,73.05,134.59,71.26z M165.83,163.71H34.17c-8.55,0-15.7-6.09-17.34-14.16h67.25c1.95,0,3.54-1.58,3.54-3.54
		s-1.58-3.54-3.54-3.54h-55.4c-4.99-17.09-0.73-34.6,11.61-47.25c15.54-15.92,40.16-21.15,66.64-14.39
		c-4.61,5.76-7.12,12.09-7.3,18.54c-0.2,7.38,2.74,14.5,8.29,20.05c0,0,0,0,0,0c5.37,5.37,12.21,8.3,19.34,8.3
		c0.24,0,0.47,0,0.71-0.01c7.8-0.21,15.45-3.84,22.1-10.49c3.99-3.99,6.63-7.78,8.5-11.3c8.77,6.69,13.7,13.19,14.65,19.36
		c1,6.49-2.4,12.05-6.25,17.18h-51.03c-1.95,0-3.54,1.58-3.54,3.54s1.58,3.54,3.54,3.54h67.25
		C181.53,157.62,174.38,163.71,165.83,163.71z"/>
	<path class="st0" d="M97.07,51.94c-1.13,1.6-0.75,3.8,0.85,4.93c0.62,0.44,1.33,0.65,2.04,0.65c1.11,0,2.2-0.52,2.89-1.5
		c3.71-5.24,1.83-10.33,0.46-14.05c-1.35-3.66-1.77-5.34-0.46-7.19c1.13-1.6,0.75-3.8-0.85-4.93c-1.6-1.13-3.8-0.75-4.93,0.85
		c-3.59,5.08-1.75,10.08-0.4,13.73C98.06,48.21,98.49,49.94,97.07,51.94z"/>
	<path class="st0" d="M77.71,51.94c-1.13,1.6-0.75,3.8,0.85,4.93c0.62,0.44,1.33,0.65,2.04,0.65c1.11,0,2.2-0.52,2.89-1.5
		c3.71-5.24,1.83-10.33,0.46-14.05c-1.35-3.66-1.77-5.34-0.46-7.19c1.13-1.6,0.75-3.8-0.85-4.93c-1.6-1.13-3.8-0.75-4.93,0.85
		c-3.59,5.08-1.75,10.08-0.4,13.73C78.7,48.21,79.13,49.94,77.71,51.94z"/>
	<path class="st0" d="M116.43,51.94c-1.13,1.6-0.75,3.8,0.85,4.93c0.62,0.44,1.33,0.65,2.04,0.65c1.11,0,2.2-0.52,2.89-1.5
		c3.71-5.24,1.83-10.33,0.46-14.05c-1.35-3.66-1.77-5.34-0.46-7.19c1.13-1.6,0.75-3.8-0.85-4.93c-1.6-1.13-3.8-0.75-4.93,0.85
		c-3.59,5.08-1.75,10.08-0.4,13.73C117.42,48.21,117.85,49.94,116.43,51.94z"/>
	<path class="st0" d="M72.98,100.37c-0.85,0.49-1.88,0.62-2.82,0.37c-1.89-0.5-3.83,0.62-4.33,2.5c-0.51,1.89,0.62,3.83,2.5,4.33
		c0.91,0.24,1.85,0.37,2.79,0.37c1.89,0,3.76-0.5,5.4-1.45c1.69-0.98,2.27-3.14,1.3-4.83C76.84,99.97,74.67,99.39,72.98,100.37z"/>
	<path class="st0" d="M53.51,121.61c-0.85,0.49-1.88,0.62-2.82,0.37c-1.89-0.5-3.83,0.62-4.33,2.5c-0.51,1.89,0.62,3.83,2.5,4.33
		c0.91,0.24,1.85,0.37,2.79,0.37c1.89,0,3.76-0.5,5.4-1.45c1.69-0.98,2.27-3.14,1.3-4.83C57.37,121.21,55.2,120.63,53.51,121.61z"/>
	<path class="st0" d="M99.05,127.15c-0.98-1.69-3.14-2.27-4.83-1.3c-0.85,0.49-1.88,0.62-2.82,0.37c-1.89-0.51-3.83,0.61-4.34,2.5
		c-0.51,1.89,0.61,3.83,2.5,4.33c0.91,0.24,1.85,0.37,2.79,0.37c1.89,0,3.76-0.5,5.4-1.45C99.45,131.01,100.03,128.84,99.05,127.15z
		"/>
	<path class="st0" d="M100,142.47L100,142.47c-1.96,0-3.54,1.58-3.54,3.54s1.59,3.54,3.54,3.54c1.95,0,3.54-1.58,3.54-3.54
		S101.96,142.47,100,142.47z"/>
</g>
</svg>
