<?xml version="1.0" encoding="utf-8"?>
<!-- Generator: Adobe Illustrator 25.2.0, SVG Export Plug-In . SVG Version: 6.00 Build 0)  -->
<svg version="1.1" id="Layer_1" xmlns="http://www.w3.org/2000/svg" xmlns:xlink="http://www.w3.org/1999/xlink" x="0px" y="0px"
	 viewBox="0 0 200 200" style="enable-background:new 0 0 200 200;" xml:space="preserve">
<style type="text/css">
	.st0{fill:#FFFFFF;}
</style>
<g>
	<path class="st0" d="M145.42,109.82l-5.83-17.01c-0.18-0.53-0.48-1.01-0.86-1.41c-0.26,3.93-3.43,7.13-7.46,7.34
		c-1,0.05-1.98,0.08-2.91,0.08h-0.09c-2.68,0-5.22-0.2-7.64-0.56c-0.01,0.49,0.06,1,0.25,1.49c0.77,2.04,3.04,3.06,5.08,2.29v0
		l7.49-2.83l17.78,51.84c3.08-3.36,6.97-5.92,11.4-7.42c2.85-0.97,5.82-1.46,8.8-1.46c9.52,0,18.17,4.91,23.12,12.69
		c2.95-0.14,3.7-1.87-1.03-8.04c-7.64-9.95-18.26-11.88-25.73-11.78c-0.47-1.26-0.95-2.58-1.46-3.98
		C161.75,118.4,151.47,112.37,145.42,109.82L145.42,109.82z"/>
	<path class="st0" d="M109.7,31.76c0,0.05,0,0.11,0.01,0.17c0.2,3.81,1.07,6.47,1.08,9.1c0,1.36-0.26,2.71-1,4.09
		c-0.07,0.13-0.19,0.25-0.32,0.32c-2.17,1.16-4.5,1.52-6.87,1.52c-2.07,0-4.19-0.27-6.32-0.55c-1.99-0.26-3.75-0.67-5.32-1.23
		c2.41,3.12,5.86,5.45,10,6.42c9.53,2.22,19.06-3.71,21.29-13.24c0.98-4.22,0.37-8.43-1.45-12.02c-3.17,0.39-7.45,1.18-9.6,2.84
		C110.21,29.94,109.71,30.73,109.7,31.76L109.7,31.76z"/>
	<path class="st0" d="M81.55,68.88l0-0.01l-0.03-0.07c-0.87-1.92-0.94-4.06-0.21-6.03c0.74-1.97,2.2-3.54,4.12-4.41
		c1.03-0.47,2.13-0.71,3.26-0.71c3.08,0,5.9,1.81,7.18,4.62l0.04,0.08c0.06,0.12,0.16,0.31,0.29,0.56c0.27,0.52,0.74,1.34,1.38,2.34
		c0.75,1.18,1.84,2.74,3.26,4.43c1.42-7.45-1.57-15.66-7.82-17.22c-6.73-1.68-16.48,1.98-20.45,13.51
		c-5.36,15.9-6.52,26.25-4.48,43.75c1.97,10.14,7.92,13.01,13.92,13.7c0.03,0,0.05,0.01,0.08,0.02l29.88,4.65l11.19,28.37
		c1.53,3.87,5.24,6.24,9.17,6.24c1.2,0,2.43-0.22,3.61-0.69c5.06-2,7.54-7.72,5.55-12.78l-13.27-33.62
		c-1.28-3.25-4.2-5.58-7.65-6.12l-24.76-3.85c-0.13-5.81,0.51-11.83,1.43-17.56c-1.81-1.42-3.41-2.87-4.81-4.27
		C85.77,77.21,82.42,70.71,81.55,68.88L81.55,68.88z"/>
	<path class="st0" d="M128.27,97.24h0.09c0.94,0,1.88-0.03,2.83-0.07c3.48-0.18,6.15-3.14,5.98-6.62c-0.18-3.48-3.14-6.15-6.62-5.97
		c-0.75,0.04-1.48,0.06-2.19,0.06c-12.08-0.03-20.28-5.32-25.94-10.87c-2.79-2.77-4.85-5.58-6.17-7.65
		c-0.66-1.04-1.14-1.89-1.44-2.45c-0.15-0.28-0.26-0.49-0.32-0.62c-0.03-0.05-0.04-0.09-0.06-0.11h0c-1.44-3.17-5.18-4.57-8.35-3.13
		c-3.17,1.44-4.57,5.18-3.13,8.35c0.21,0.43,3.38,7.39,10.59,14.57C100.67,89.85,112.28,97.24,128.27,97.24L128.27,97.24z"/>
	<path class="st0" d="M61.26,118.71V69.64c0-2.32-1.88-4.21-4.2-4.21H7.29c-2.32,0-4.2,1.88-4.2,4.21v49.07
		c0,2.32,1.88,4.21,4.2,4.21h49.77C59.38,122.92,61.26,121.03,61.26,118.71z"/>
	<path class="st0" d="M76.96,162.05c-4.16-12.28-17.49-18.86-29.77-14.69c-12.28,4.16-18.86,17.49-14.69,29.77
		c4.16,12.28,17.49,18.86,29.77,14.7C74.54,187.66,81.12,174.33,76.96,162.05z M57.7,178.38c-4.85,1.65-10.12-0.96-11.76-5.81
		c-1.64-4.85,0.96-10.12,5.81-11.76c4.85-1.65,10.12,0.96,11.76,5.81C65.15,171.47,62.55,176.73,57.7,178.38L57.7,178.38z"/>
	<path class="st0" d="M159.24,108.5c6.64,0,6.64-24.03,0-24.03c-6.64,0-12.02,5.38-12.02,12.02
		C147.22,103.12,152.6,108.5,159.24,108.5z"/>
	<path class="st0" d="M144.32,165.47H94.08c-4.34-8.76-5.84-17.71-6.33-23.53c1.29-0.39,2.23-1.58,2.23-3v-8.67
		c0-1.74-1.41-3.15-3.15-3.15H22.6c-1.74,0-3.15,1.41-3.15,3.15v8.67c0,1.74,1.41,3.15,3.15,3.15h0.35
		c-3.42,8.4-8.71,22.96-8.71,32.83h13.59c-1.18-5.9-0.4-11.98,2.3-17.47c3.24-6.57,8.85-11.48,15.78-13.83
		c2.85-0.97,5.82-1.46,8.81-1.46c11.75,0,22.19,7.48,25.96,18.62c1.6,4.72,1.83,9.57,0.91,14.14h5.54h13h44.4
		C143.91,171.79,143.84,168.6,144.32,165.47L144.32,165.47z"/>
	<path class="st0" d="M163.89,147.36c-12.28,4.16-18.86,17.49-14.69,29.77c4.16,12.28,17.49,18.86,29.77,14.7
		c12.28-4.16,18.86-17.49,14.69-29.77C189.5,149.78,176.17,143.2,163.89,147.36L163.89,147.36z M174.41,178.38
		c-4.85,1.65-10.12-0.96-11.76-5.81c-1.64-4.85,0.96-10.12,5.81-11.76c4.85-1.65,10.12,0.96,11.76,5.81
		C181.86,171.47,179.26,176.73,174.41,178.38z"/>
	<path class="st0" d="M122.76,24.55c-0.34-2.39-1.09-4.67-2.2-6.75c-3.01-5.65-8.6-9.81-15.43-10.7c-0.9-0.12-1.8-0.17-2.68-0.17
		c0,0,0,0,0,0c-10.13,0-18.94,7.52-20.29,17.84c-0.12,0.9-0.17,1.79-0.17,2.67c0,1.22,0.11,2.42,0.32,3.59
		c0.78,4.37,2.09,7.5,4.27,9.69c2.18,2.19,5.29,3.53,9.91,4.14c2.13,0.28,4.18,0.54,6.11,0.54c2.13,0,4.1-0.31,5.91-1.22
		c0.52-1.05,0.7-2.03,0.7-3.13c0.01-2.25-0.86-5.01-1.08-9.01c-0.01-0.09-0.01-0.17-0.01-0.26c-0.01-1.62,0.89-2.93,2.12-3.83
		c1.23-0.93,2.82-1.56,4.49-2.04C117.63,25.06,120.81,24.73,122.76,24.55L122.76,24.55z"/>
</g>
</svg>
