<?xml version="1.0" encoding="utf-8"?>
<!-- Generator: Adobe Illustrator 25.2.0, SVG Export Plug-In . SVG Version: 6.00 Build 0)  -->
<svg version="1.1" id="Layer_1" xmlns="http://www.w3.org/2000/svg" xmlns:xlink="http://www.w3.org/1999/xlink" x="0px" y="0px"
	 viewBox="0 0 200 200" style="enable-background:new 0 0 200 200;" xml:space="preserve">
<style type="text/css">
	.st0{fill:#5B8646;}
</style>
<g>
	<path class="st0" d="M179.14,56.14c2.6-14.1,1.13-26.67-3.74-31.54c-4.87-4.87-17.44-6.33-31.54-3.74
		C130.51,13.45,115.36,9.53,100,9.53c-27.2,0-52.71,12.07-69.98,33.13c-0.93,1.13-0.76,2.8,0.37,3.73c0.49,0.4,1.09,0.6,1.68,0.6
		c0.77,0,1.53-0.33,2.05-0.97C50.38,26.2,74.39,14.83,100,14.83c12.42,0,24.69,2.72,35.87,7.9c-4.29,1.22-8.52,2.78-12.67,4.64
		c-0.14,0.05-0.28,0.11-0.42,0.19c-5.51,2.51-10.84,5.57-15.9,9.12c-6.67-4-13.24-5.99-20.53-6.21c-3.16-0.1-6.19,1.36-8.08,3.9
		c-1.73,2.32-3.32,4.76-4.77,7.32c-2.52-0.58-5.12-0.88-7.73-0.88c-19,0-34.46,15.46-34.46,34.46c0,7.61,2.46,14.66,6.64,20.37
		c-0.1,1.43-0.15,2.9-0.15,4.37c0,9.21,2.06,18.33,5.97,26.6c-7.98,2.4-15.04,6.79-19.89,11.63c-5.92-11.8-9.04-24.93-9.04-38.23
		c0-15.63,4.27-30.91,12.35-44.19c0.76-1.25,0.36-2.88-0.89-3.64c-1.25-0.76-2.88-0.36-3.64,0.89C14.07,67.17,9.53,83.4,9.53,100
		c0,14.91,3.69,29.63,10.69,42.7c-0.65,1.33-0.8,2.85-0.4,4.32c0.51,1.88,1.83,3.38,3.63,4.13c0.79,0.32,1.66,0.65,2.59,0.97
		c6,8.5,13.34,15.84,21.84,21.84c0.32,0.94,0.65,1.81,0.97,2.6c0.74,1.8,2.24,3.12,4.12,3.63c0.55,0.15,1.1,0.22,1.65,0.22
		c0.93,0,1.84-0.21,2.68-0.62c13.07,7,27.79,10.69,42.7,10.69c24.16,0,46.88-9.41,63.97-26.5s26.5-39.81,26.5-63.97
		C190.47,84.64,186.55,69.49,179.14,56.14z M171.65,28.35c2.65,2.65,5.04,13.11,2.04,28.05c-0.82,4.08-2.33,9.77-5.07,16.29
		c-13.52,2.03-24.21-0.68-31.8-8.08c-9.33-9.11-11.4-23.05-10.32-32.87c6.86-2.97,12.85-4.57,17.1-5.42
		C158.54,23.31,169,25.7,171.65,28.35z M54.3,60.7l6.88,11.92H47.41C48.11,67.8,50.65,63.58,54.3,60.7z M61.18,77.91L54.3,89.83
		c-3.65-2.88-6.2-7.1-6.89-11.92H61.18z M63.55,84.41c0.19,3.2,0.6,6.34,1.21,9.38c-2.07-0.11-4.04-0.57-5.88-1.3L63.55,84.41z
		 M64.96,64.71c-0.2,0.98-0.37,1.96-0.52,2.94l-5.55-9.61c2.13-0.85,4.45-1.33,6.88-1.33c0.41,0,0.81,0.02,1.22,0.04
		C66.18,59.36,65.5,62.01,64.96,64.71z M65.77,46.11c1.75,0,3.48,0.16,5.19,0.46c-0.78,1.64-1.5,3.33-2.17,5.04
		c-1-0.13-2.01-0.2-3.02-0.2c-13.15,0-23.85,10.7-23.85,23.85c0,12.43,9.55,22.66,21.7,23.75c-0.52,1.77-0.98,3.5-1.4,5.18
		c-7.84-0.95-14.68-4.96-19.31-10.81c-0.08-0.12-0.16-0.24-0.26-0.34c-3.79-4.93-6.03-11.09-6.03-17.78
		C36.62,59.19,49.7,46.11,65.77,46.11z M43.12,101.26c4.92,4.29,11.09,7.2,17.92,8.13c-1.17,5.67-1.82,10.63-2.17,14.52
		c-0.04,0.48-0.46,0.85-0.95,0.82c-3-0.13-5.97,0.1-8.87,0.61C45.34,117.89,43.31,109.63,43.12,101.26z M34.18,154.05
		c3.18,0.45,6.73,0.59,10.57,0.19c0.38-0.04,0.63,0.15,0.75,0.26c0.12,0.12,0.3,0.37,0.26,0.75c-0.41,3.84-0.26,7.39,0.19,10.57
		C41.65,162.28,37.72,158.35,34.18,154.05z M53.76,174.52c-1.71-4.14-3.57-10.74-2.72-18.71c0.2-1.88-0.45-3.72-1.79-5.06
		c-1.33-1.34-3.18-1.99-5.05-1.79c-7.98,0.84-14.58-1.01-18.71-2.72c-0.37-0.15-0.5-0.45-0.55-0.62c-0.04-0.16-0.08-0.46,0.14-0.76
		c5.75-7.62,19.13-15.41,32.61-14.84c3.33,0.14,6.16-2.34,6.46-5.64c1.15-12.76,5.58-37.56,22.32-60.27
		c0.87-1.18,0.62-2.84-0.56-3.71c-1.18-0.87-2.84-0.62-3.71,0.56c-5.71,7.74-10.04,15.71-13.34,23.4c-0.17-2.69-0.18-5.41-0.03-8.15
		c0.01-0.08,0.01-0.15,0.01-0.23c0.01-0.15,0.02-0.3,0.03-0.44c0-0.04,0.01-0.08,0.01-0.13c0.9-13.53,5.67-27.21,13.64-37.9
		c0.86-1.15,2.22-1.81,3.67-1.77c5.66,0.18,10.84,1.58,16.05,4.37c-3.13,2.47-6.13,5.13-8.97,7.97c-1,1-2.01,2.05-2.99,3.1
		c-1,1.07-0.93,2.75,0.14,3.75c1.07,1,2.75,0.93,3.75-0.14c0.94-1.01,1.9-2.01,2.85-2.96c8.02-8.02,16.34-13.61,23.96-17.52
		c-0.51,11.01,2.41,24.56,12.14,34.06c5.09,4.96,13.7,10.22,27.36,10.22c1.76,0,3.6-0.09,5.53-0.28
		c-3.92,7.8-9.62,16.38-17.87,24.64c-1.1,1.1-2.23,2.18-3.37,3.22c-5.65-4.05-12.57-6.44-20.03-6.44
		c-18.8,0-34.13,15.14-34.45,33.86c-4.89,1.04-9.82,1.78-14.68,2.22c-3.31,0.3-5.78,3.13-5.64,6.46
		c0.57,13.47-7.22,26.86-14.84,32.61c-0.3,0.22-0.61,0.19-0.76,0.14C54.21,175.02,53.91,174.89,53.76,174.52z M148.86,109.65
		c1.02-0.95,2.04-1.92,3.03-2.91c1.73-1.73,3.4-3.52,4.99-5.36c-0.12,5.26-0.95,10.39-2.48,15.35
		C152.86,114.12,151,111.75,148.86,109.65z M75.27,142.08c-0.02-0.49,0.34-0.91,0.82-0.95c4.81-0.43,9.68-1.16,14.53-2.15
		c0.94,6.75,3.85,12.94,8.18,17.9c-8.39-0.18-16.67-2.21-24.14-5.92C75.17,148.05,75.39,145.08,75.27,142.08z M100,185.17
		c-13.29,0-26.43-3.12-38.23-9.04c4.84-4.85,9.24-11.92,11.63-19.89c8.26,3.91,17.39,5.96,26.59,5.96c1.48,0,2.96-0.05,4.4-0.16
		c3.96,2.9,8.58,4.99,13.64,5.99c1.44,0.28,2.83-0.65,3.11-2.09c0.28-1.44-0.65-2.83-2.09-3.11c-13.61-2.68-23.48-14.7-23.48-28.6
		c0-16.08,13.08-29.15,29.15-29.15s29.15,13.08,29.15,29.15c0,13.9-9.88,25.92-23.48,28.6c-1.44,0.28-2.37,1.68-2.09,3.11
		c0.25,1.26,1.36,2.14,2.6,2.14c0.17,0,0.34-0.02,0.51-0.05c16.09-3.16,27.76-17.38,27.76-33.8c0-3.69-0.58-7.24-1.66-10.57
		c3.09-7.5,4.66-15.45,4.66-23.66c0-1.67-0.07-3.36-0.21-5.04c4.3-5.85,7.94-12.1,10.82-18.58c0.09-0.15,0.16-0.31,0.21-0.48
		c1.69-3.86,3.11-7.79,4.24-11.77c5.19,11.18,7.9,23.44,7.9,35.87C185.17,146.96,146.96,185.17,100,185.17z"/>
	<path class="st0" d="M141.2,40.68c-1.04,1.03-1.04,2.71,0,3.75l3.92,3.92c0.52,0.52,1.2,0.78,1.87,0.78c0.68,0,1.36-0.26,1.87-0.78
		c1.04-1.03,1.04-2.71,0-3.75l-3.92-3.92C143.91,39.65,142.23,39.65,141.2,40.68z"/>
	<path class="st0" d="M148.59,134.23c0-13.15-10.7-23.85-23.85-23.85s-23.85,10.7-23.85,23.85s10.7,23.85,23.85,23.85
		S148.59,147.38,148.59,134.23z M106.18,134.23c0-2.43,0.48-4.75,1.33-6.88l11.92,6.88l-11.92,6.88
		C106.66,138.98,106.18,136.66,106.18,134.23z M143.29,134.23c0,2.43-0.48,4.75-1.33,6.88l-11.92-6.88l11.92-6.88
		C142.82,129.47,143.29,131.79,143.29,134.23z M139.3,122.76l-11.92,6.88v-13.77C132.2,116.56,136.42,119.1,139.3,122.76z
		 M122.09,115.87v13.77l-11.92-6.88C113.05,119.1,117.27,116.56,122.09,115.87z M110.17,145.7l11.92-6.88v13.77
		C117.27,151.9,113.05,149.35,110.17,145.7z M127.39,152.59v-13.77l11.92,6.88C136.42,149.35,132.2,151.9,127.39,152.59z"/>
</g>
</svg>
