<?xml version="1.0" encoding="utf-8"?>
<!-- Generator: Adobe Illustrator 25.2.0, SVG Export Plug-In . SVG Version: 6.00 Build 0)  -->
<svg version="1.1" id="Layer_1" xmlns="http://www.w3.org/2000/svg" xmlns:xlink="http://www.w3.org/1999/xlink" x="0px" y="0px"
	 viewBox="0 0 200 200" style="enable-background:new 0 0 200 200;" xml:space="preserve">
<style type="text/css">
	.st0{fill:#FFFFFF;}
</style>
<path class="st0" d="M100,4.32c-38.75,0-70.15,31.41-70.15,70.15c0,37.05,62.5,115.44,65.18,118.82c2.2,2.75,6.22,3.19,8.97,0.98
	c0.36-0.29,0.69-0.62,0.98-0.98c2.68-3.38,65.18-81.76,65.18-118.82C170.15,35.73,138.75,4.32,100,4.32z M100,93.61
	c-14.09,0-25.51-11.42-25.51-25.51S85.91,42.59,100,42.59s25.51,11.42,25.51,25.51S114.09,93.61,100,93.61z"/>
</svg>
