<?xml version="1.0" encoding="utf-8"?>
<!-- Generator: Adobe Illustrator 25.2.0, SVG Export Plug-In . SVG Version: 6.00 Build 0)  -->
<svg version="1.1" id="Layer_1" xmlns="http://www.w3.org/2000/svg" xmlns:xlink="http://www.w3.org/1999/xlink" x="0px" y="0px"
	 viewBox="0 0 200 200" style="enable-background:new 0 0 200 200;" xml:space="preserve">
<style type="text/css">
	.st0{fill:#3F873F;}
</style>
<g>
	<path class="st0" d="M35.52,29.38h61.41c1.7,0,3.07-1.37,3.07-3.07c0-1.7-1.37-3.07-3.07-3.07H35.52c-1.7,0-3.07,1.37-3.07,3.07
		C32.45,28.01,33.83,29.38,35.52,29.38z"/>
	<path class="st0" d="M173.69,89.3V79.22c1.95-1.74,3.07-4.24,3.07-6.86v-6.14c-0.01-5.08-4.13-9.21-9.21-9.21h-30.7
		c-5.08,0.01-9.21,4.13-9.21,9.21v6.14c0,2.62,1.12,5.11,3.07,6.86V89.3c-3.28,1.17-6.31,2.94-8.93,5.23l2.79-71.18
		c0-0.04,0-0.08,0-0.12V10.96c0-1.7-1.37-3.07-3.07-3.07H10.96c-1.7,0-3.07,1.37-3.07,3.07v12.28c0,0.04,0,0.08,0,0.12l6.14,156.59
		c0.05,1.31,0.93,2.44,2.19,2.82c1.27,0.38,31.38,9.34,53.08,9.34c17.99,0,37.69-6.15,44.6-8.51c2.6,5.21,7.92,8.5,13.74,8.51h49.13
		c8.47-0.01,15.34-6.88,15.35-15.35v-61.41C192.1,103.65,184.72,93.22,173.69,89.3L173.69,89.3z M133.77,66.23
		c0-1.69,1.38-3.07,3.07-3.07h30.7c1.69,0,3.07,1.38,3.07,3.07v6.14c0,1.69-1.38,3.07-3.07,3.07h-30.7c-1.69,0-3.07-1.38-3.07-3.07
		V66.23z M167.55,81.58v6.32c-1.02-0.11-2.04-0.17-3.07-0.17h-24.56c-1.03,0-2.05,0.06-3.07,0.17v-6.32H167.55z M109.21,29.38h8.97
		l-2.88,73.44c-1.99,3.88-3.02,8.17-3.02,12.53v61.41c0,0.3,0.01,0.59,0.03,0.89c-6.17,2.11-25.77,8.32-43.01,8.32
		c-17.61,0-41.99-6.45-49.22-8.48L14.27,29.38h8.97c1.7,0,3.07-1.37,3.07-3.07c0-1.7-1.37-3.07-3.07-3.07h-9.21l0-0.06v-9.15h104.39
		v9.15l0,0.06h-9.21c-1.7,0-3.07,1.37-3.07,3.07C106.14,28.01,107.52,29.38,109.21,29.38z M176.76,185.97h-49.13
		c-3.9-0.01-7.38-2.46-8.68-6.14h66.49C184.14,183.51,180.66,185.97,176.76,185.97L176.76,185.97z M185.97,173.69h-67.55v-52.2
		h67.55V173.69z M118.42,115.35c0.01-11.86,9.63-21.48,21.49-21.49h24.56c11.86,0.01,21.48,9.63,21.49,21.49H118.42z"/>
	<path class="st0" d="M136.84,154.74c2.44,0,4.79-0.96,6.51-2.69l3.15-3.15c1.23,3.8,4.77,6.37,8.76,6.37h12.28
		c5.09,0,9.21-4.12,9.21-9.21c0-5.09-4.12-9.21-9.21-9.21h-12.28c-0.18,0-0.35,0.01-0.53,0.02v-0.02c0-5.09-4.12-9.21-9.21-9.21
		c-2.44,0-4.79,0.97-6.51,2.7l-4.34,4.34l-4.34,4.34c-3.6,3.59-3.61,9.42-0.01,13.02C132.05,153.76,134.4,154.74,136.84,154.74
		L136.84,154.74z M164.48,142.99h3.07c1.7,0,3.07,1.37,3.07,3.07c0,1.7-1.37,3.07-3.07,3.07h-3.07V142.99z M155.27,142.99h3.07v6.14
		h-3.07c-1.7,0-3.07-1.37-3.07-3.07C152.2,144.36,153.57,142.99,155.27,142.99z M143.36,134.67c1.19-1.21,3.13-1.23,4.34-0.05
		c1.21,1.19,1.23,3.13,0.05,4.34c-0.02,0.02-0.03,0.03-0.05,0.05l-2.17,2.17l-4.34-4.34L143.36,134.67z M134.67,143.36l2.17-2.17
		l4.34,4.34l-2.17,2.17c-1.19,1.21-3.14,1.22-4.34,0.03c-1.21-1.19-1.22-3.14-0.03-4.34C134.66,143.38,134.66,143.37,134.67,143.36z
		"/>
	<path class="st0" d="M161.41,161.41h-12.28c-1.7,0-3.07,1.37-3.07,3.07c0,1.7,1.37,3.07,3.07,3.07h12.28c1.7,0,3.07-1.37,3.07-3.07
		C164.48,162.78,163.1,161.41,161.41,161.41z"/>
	<path class="st0" d="M72.37,142.99c1.7,0,3.07-1.37,3.07-3.07c0-1.7-1.37-3.07-3.07-3.07H60.09c-1.7,0-3.07,1.37-3.07,3.07
		c0,1.7,1.37,3.07,3.07,3.07H72.37z"/>
	<path class="st0" d="M84.65,149.13H47.8c-1.7,0-3.07,1.37-3.07,3.07c0,1.7,1.37,3.07,3.07,3.07h36.84c1.7,0,3.07-1.37,3.07-3.07
		C87.72,150.5,86.34,149.13,84.65,149.13z"/>
	<path class="st0" d="M75.58,50.87h-9.36c-5.09,0-9.21,4.12-9.21,9.21s4.12,9.21,9.21,9.21h6.54c0.75,6.59,0.65,15.89-2.46,19.21
		c-2.35-0.52-4.74-0.79-7.15-0.78c-6.43,0-12.48,1.88-16.97,5.08c-7.37-4.19-16.74-1.62-20.94,5.75
		c-4.19,7.37-1.62,16.74,5.75,20.94c4.71,2.68,10.48,2.68,15.19,0c4.49,3.19,10.54,5.08,16.97,5.08s12.48-1.88,16.97-5.08
		c2.31,1.32,4.93,2.01,7.59,2.01h0.13c4.14-0.03,8.08-1.76,10.89-4.79c2.82-2.99,4.37-6.96,4.32-11.07
		c-0.21-22.98-14.21-43.46-20.21-51.2C81.12,52.18,78.43,50.86,75.58,50.87L75.58,50.87z M94.28,112.49
		c-2.41,2.58-6.11,3.52-9.47,2.4c0.23-0.33,0.46-0.66,0.67-1c0.88-1.45,0.43-3.34-1.02-4.22c-1.45-0.88-3.34-0.43-4.22,1.02l0,0
		c-2.88,4.7-9.58,7.74-17.09,7.74s-14.21-3.04-17.09-7.74c-0.88-1.45-2.78-1.9-4.22-1.02c-1.45,0.88-1.9,2.78-1.02,4.22l0,0
		c0.21,0.34,0.43,0.67,0.67,1c-4.83,1.6-10.04-1.01-11.65-5.84c-1.6-4.83,1.01-10.04,5.84-11.65c1.89-0.63,3.92-0.63,5.81,0
		c-0.23,0.33-0.46,0.66-0.67,1c-0.88,1.45-0.43,3.34,1.02,4.22c1.45,0.88,3.34,0.43,4.22-1.02l0,0c2.88-4.7,9.58-7.74,17.09-7.74
		c3.98-0.05,7.91,0.88,11.45,2.71c1.49,0.8,3.36,0.24,4.16-1.25c0.8-1.49,0.24-3.36-1.25-4.16l0,0c-0.38-0.2-0.77-0.39-1.16-0.58
		c4.72-8.09,2.42-23.01,2.12-24.85c-0.25-1.48-1.53-2.56-3.03-2.56h-9.21c-1.7,0-3.07-1.37-3.07-3.07s1.37-3.07,3.07-3.07h9.36
		c0.95,0,1.84,0.43,2.42,1.18c4.39,5.65,18.73,25.79,18.92,47.49C96.96,108.21,96.01,110.65,94.28,112.49L94.28,112.49z"/>
</g>
</svg>
