<?xml version="1.0" encoding="utf-8"?>
<!-- Generator: Adobe Illustrator 25.2.0, SVG Export Plug-In . SVG Version: 6.00 Build 0)  -->
<svg version="1.1" id="Layer_1" xmlns="http://www.w3.org/2000/svg" xmlns:xlink="http://www.w3.org/1999/xlink" x="0px" y="0px"
	 viewBox="0 0 200 200" style="enable-background:new 0 0 200 200;" xml:space="preserve">
<style type="text/css">
	.st0{fill:#3F873F;}
</style>
<g>
	<path class="st0" d="M127.13,127.15c0-6-4.87-10.87-10.87-10.87H81.29l2.36-18.69c0.01-0.11,0.01-0.22,0-0.33
		c0-15.05-10.65-19.02-16.3-19.02c-1.26-0.05-2.38,0.77-2.72,1.98l-10.87,37.74c-1.83,3.6-4.66,6.59-8.15,8.61v-2.15
		c0-1.5-1.22-2.72-2.72-2.72H15.72c-1.5,0-2.72,1.22-2.72,2.72v59.78c0,1.5,1.22,2.72,2.72,2.72h27.17c1.5,0,2.72-1.22,2.72-2.72
		v-1.82l15.57,4.54c0.24,0.04,0.49,0.04,0.73,0h46.19c6-0.08,10.8-5.02,10.71-11.02c-0.04-2.51-0.94-4.94-2.56-6.86
		c5.14-3.1,6.8-9.77,3.71-14.92c-0.29-0.49-0.62-0.95-0.99-1.39c5.14-3.1,6.8-9.77,3.71-14.92c-0.29-0.49-0.62-0.95-0.99-1.39
		C125.02,134.52,127.09,130.99,127.13,127.15z M40.18,181.5H18.44v-54.34h21.74V181.5z M116.26,132.59h-13.59
		c-1.5,0-2.72,1.22-2.72,2.72c0,1.5,1.22,2.72,2.72,2.72h10.87c3,0,5.43,2.43,5.43,5.43s-2.43,5.43-5.43,5.43H99.96
		c-1.5,0-2.72,1.22-2.72,2.72c0,1.5,1.22,2.72,2.72,2.72h10.87c3,0,5.43,2.43,5.43,5.43c0,3-2.43,5.43-5.43,5.43H97.24
		c-1.5,0-2.72,1.22-2.72,2.72c0,1.5,1.22,2.72,2.72,2.72h10.87c3,0,5.43,2.43,5.43,5.43s-2.43,5.43-5.43,5.43H62.29l-16.68-4.76
		v-44.48c8.15-1.87,13.07-11.58,13.29-12.04c0.08-0.16,0.14-0.32,0.19-0.49l10.24-35.81c3.18,0.71,8.83,3.34,8.89,13.18l-2.72,21.57
		c-0.09,0.77,0.14,1.54,0.65,2.12c0.52,0.59,1.28,0.93,2.07,0.92h38.04c3,0,5.43,2.43,5.43,5.43
		C121.69,130.15,119.26,132.59,116.26,132.59z"/>
	<path class="st0" d="M186.91,50.23c-0.32-0.98-1.16-1.69-2.17-1.85l-33.99-5.22l-12.99-28.53c-0.62-1.37-2.23-1.97-3.6-1.35
		c-0.6,0.27-1.07,0.75-1.35,1.35l-12.99,28.53l-33.86,5.19c-1.49,0.22-2.51,1.59-2.3,3.08c0.08,0.58,0.36,1.12,0.78,1.54
		l23.48,23.45l-5.24,31.28c-0.18,1.49,0.88,2.84,2.37,3.03c0.56,0.07,1.13-0.04,1.63-0.31l28.61-15.49l28.59,15.6
		c0.4,0.22,0.85,0.33,1.3,0.33c0.57,0,1.12-0.18,1.58-0.52c0.87-0.61,1.31-1.67,1.11-2.72l-5.22-31.25l23.48-23.45
		C186.86,52.23,187.16,51.2,186.91,50.23z M157.94,73.59c-0.62,0.62-0.9,1.5-0.76,2.36l4.54,27.17l-25-13.59
		c-0.43-0.28-0.93-0.43-1.44-0.43c-0.46,0-0.9,0.11-1.3,0.33l-25,13.59l4.54-27.17c0.14-0.86-0.14-1.74-0.76-2.36L92.08,52.83
		l29.89-4.62c0.91-0.14,1.69-0.73,2.07-1.58l11.11-24.46l11.11,24.46c0.38,0.84,1.15,1.44,2.07,1.58l29.89,4.62L157.94,73.59z"/>
	<path class="st0" d="M48.33,53.79h2.72v2.72c0,1.5,1.22,2.72,2.72,2.72c1.5,0,2.72-1.22,2.72-2.72v-2.72h2.72
		c1.5,0,2.72-1.22,2.72-2.72c0-1.5-1.22-2.72-2.72-2.72h-2.72v-2.72c0-1.5-1.22-2.72-2.72-2.72c-1.5,0-2.72,1.22-2.72,2.72v2.72
		h-2.72c-1.5,0-2.72,1.22-2.72,2.72C45.61,52.57,46.83,53.79,48.33,53.79z"/>
	<path class="st0" d="M159.73,148.89h-2.72v-2.72c0-1.5-1.22-2.72-2.72-2.72s-2.72,1.22-2.72,2.72v2.72h-2.72
		c-1.5,0-2.72,1.22-2.72,2.72c0,1.5,1.22,2.72,2.72,2.72h2.72v2.72c0,1.5,1.22,2.72,2.72,2.72s2.72-1.22,2.72-2.72v-2.72h2.72
		c1.5,0,2.72-1.22,2.72-2.72C162.45,150.11,161.24,148.89,159.73,148.89z"/>
</g>
</svg>
