<?xml version="1.0" encoding="utf-8"?>
<!-- Generator: Adobe Illustrator 25.2.0, SVG Export Plug-In . SVG Version: 6.00 Build 0)  -->
<svg version="1.1" id="Layer_1" xmlns="http://www.w3.org/2000/svg" xmlns:xlink="http://www.w3.org/1999/xlink" x="0px" y="0px"
	 viewBox="0 0 200 200" style="enable-background:new 0 0 200 200;" xml:space="preserve">
<style type="text/css">
	.st0{fill:#FFFFFF;}
</style>
<path class="st0" d="M191.3,78.52c-1.2-3.72-4.5-6.36-8.4-6.71L129.92,67l-20.95-49.03c-1.54-3.59-5.06-5.92-8.97-5.92
	c-3.91,0-7.43,2.33-8.97,5.93L70.08,67L17.1,71.81c-3.89,0.36-7.18,2.99-8.39,6.71s-0.09,7.79,2.85,10.36L51.6,124L39.8,176.02
	c-0.86,3.82,0.62,7.78,3.79,10.07c1.71,1.23,3.7,1.86,5.71,1.86c1.74,0,3.46-0.47,5-1.39l45.7-27.31l45.68,27.31
	c3.34,2.01,7.56,1.83,10.72-0.47c3.17-2.3,4.66-6.26,3.79-10.07L148.39,124l40.04-35.11C191.38,86.31,192.5,82.24,191.3,78.52z"/>
</svg>
