<?xml version="1.0" encoding="utf-8"?>
<!-- Generator: Adobe Illustrator 25.2.0, SVG Export Plug-In . SVG Version: 6.00 Build 0)  -->
<svg version="1.1" id="Layer_1" xmlns="http://www.w3.org/2000/svg" xmlns:xlink="http://www.w3.org/1999/xlink" x="0px" y="0px"
	 viewBox="0 0 200 200" style="enable-background:new 0 0 200 200;" xml:space="preserve">
<style type="text/css">
	.st0{fill:#FFFFFF;}
</style>
<g id="Layer_2_00000095329912065218263750000001143689125410050433_">
	<path class="st0" d="M99.9,32.83c-36.89,0-66.79,29.9-66.79,66.79s29.9,66.79,66.79,66.79s66.79-29.9,66.79-66.79
		C166.65,62.75,136.77,32.87,99.9,32.83z M130.3,122.65c-1.2,1.52-3.03,2.41-4.96,2.42c-1.44,0.01-2.83-0.48-3.94-1.4l-25.44-19.08
		c-1.52-1.2-2.41-3.03-2.42-4.96V55.09c0-3.51,2.85-6.36,6.37-6.35c3.51,0,6.35,2.85,6.35,6.35v41.47l23.03,17.17
		c2.73,2.11,3.24,6.03,1.13,8.76C130.38,122.55,130.34,122.6,130.3,122.65z"/>
	<path class="st0" d="M99.9,4.21c-52.7,0-95.41,42.72-95.41,95.41s42.72,95.41,95.41,95.41s95.41-42.72,95.41-95.41
		C195.25,46.95,152.57,4.27,99.9,4.21z M99.9,179.55c-44.15,0-79.93-35.79-79.93-79.93S55.75,19.68,99.9,19.68
		s79.93,35.79,79.93,79.93C179.79,143.75,144.03,179.51,99.9,179.55z"/>
</g>
</svg>
