<?xml version="1.0" encoding="utf-8"?>
<!-- Generator: Adobe Illustrator 25.2.0, SVG Export Plug-In . SVG Version: 6.00 Build 0)  -->
<svg version="1.1" id="Layer_1" xmlns="http://www.w3.org/2000/svg" xmlns:xlink="http://www.w3.org/1999/xlink" x="0px" y="0px"
	 viewBox="0 0 200 200" style="enable-background:new 0 0 200 200;" xml:space="preserve">
<style type="text/css">
	.st0{fill:#3F873F;}
</style>
<g>
	<path class="st0" d="M165.02,34.98C147.65,17.61,124.56,8.05,100,8.05c-23.36,0-45.62,8.77-62.69,24.68
		c-1.09,1.01-1.15,2.72-0.13,3.81c1.01,1.09,2.72,1.15,3.81,0.13C57.05,21.69,78.01,13.43,100,13.43
		c47.73,0,86.57,38.83,86.57,86.57c0,47.73-38.83,86.57-86.57,86.57S13.43,147.73,13.43,100c0-19.76,6.83-39.09,19.24-54.42
		c0.94-1.16,0.76-2.85-0.4-3.79c-1.16-0.94-2.85-0.76-3.79,0.4C22,50.2,16.95,59.16,13.47,68.81C9.87,78.79,8.05,89.29,8.05,100
		c0,24.56,9.56,47.65,26.93,65.02c17.37,17.37,40.46,26.93,65.02,26.93c24.56,0,47.65-9.56,65.02-26.93
		c17.37-17.37,26.93-40.46,26.93-65.02C191.95,75.44,182.39,52.35,165.02,34.98z"/>
	<path class="st0" d="M159.13,121.94c-1.27-4.93-4.29-9.04-8.29-11.74c0,0-0.01-0.01-0.01-0.01c-3.25-2.18-7.13-3.44-11.26-3.44
		c-1.67,0-3.02,0.22-4.46,0.46c-1.87,0.31-3.99,0.66-7.63,0.66c-10.98,0-21.72-4.01-30.23-11.28c-3.46-2.96-7.45-5.18-11.73-6.58
		c-0.01,0-0.01,0-0.02-0.01c-3.26-1.06-6.68-1.64-10.14-1.7c-9.24-0.16-18,3.34-24.67,9.84c-6.67,6.5-10.39,15.18-10.47,24.43
		c-0.12,14.25,8.32,26.94,21.5,32.33c6.62,2.71,19.53,5.87,34.14,5.87h0c2.68,0,5.34-0.1,7.96-0.31c0.06,0,0.13,0.01,0.19,0.01
		c0.21,0,0.42-0.03,0.62-0.08c16.88-1.44,32.5-7.1,46.53-16.86C158.03,138.76,161.23,130.09,159.13,121.94z M54.46,102.01
		c5.63-5.49,13.03-8.44,20.82-8.31c1.41,0.02,2.8,0.15,4.18,0.38l-33.48,33.48c-0.26-1.61-0.39-3.26-0.37-4.93
		C45.68,114.82,48.82,107.5,54.46,102.01z M47.61,133.55l37.84-37.84c3.01,1.18,5.83,2.85,8.31,4.98c1.31,1.12,2.68,2.18,4.08,3.16
		l-41.6,41.6C52.38,142.28,49.41,138.18,47.61,133.55z M60.8,148.51l41.74-41.74c4.71,2.61,9.78,4.47,15.02,5.51l-41.18,41.18
		c-5.11-1-9.5-2.28-12.6-3.55C62.74,149.5,61.75,149.03,60.8,148.51z M95.87,155.39c-4.44,0-8.82-0.32-12.94-0.86l41.37-41.37
		c1.06,0.07,2.13,0.1,3.19,0.1c4.08,0,6.54-0.41,8.51-0.73c1.31-0.22,2.35-0.39,3.58-0.39c1.85,0,3.64,0.35,5.29,0.98l-42.01,42.01
		C100.55,155.31,98.22,155.39,95.87,155.39L95.87,155.39z M148.1,139.11c-11.19,7.79-23.46,12.81-36.6,15l38.08-38.08
		c2.06,1.89,3.61,4.38,4.34,7.24C155.46,129.26,153.12,135.62,148.1,139.11z"/>
	<path class="st0" d="M33.37,104.77c-2.4,5.49-3.68,11.48-3.73,17.72c0,0.13,0,0.27,0,0.4c0,9.15,2.72,17.96,7.87,25.48
		c5.02,7.34,12.02,12.99,20.22,16.35c0.01,0.01,0.03,0.01,0.04,0.02l3.05,1.19c0.04,0.02,0.09,0.03,0.13,0.05
		c6.11,2.02,18.78,5.4,34.93,5.4c15.23,0,29.8-3.02,43.3-8.97c1.36-0.6,1.98-2.19,1.38-3.55c-0.6-1.36-2.19-1.98-3.55-1.38
		c-12.81,5.65-26.65,8.52-41.13,8.52c-15.34,0-27.34-3.19-33.17-5.11l-2.96-1.15c-15.02-6.15-24.72-20.6-24.72-36.83
		c0-0.12,0-0.24,0-0.36c0.05-5.71,1.23-10.9,3.25-15.52c0.11-0.15,0.22-0.32,0.3-0.5c1.13-2.49,2.49-4.82,4.05-6.97
		c6.96-9.36,17.8-15.12,28.6-16.26c10.22-0.97,20.31,2.03,28.41,8.52c0.06,0.05,0.12,0.09,0.18,0.14c0.26,0.21,0.51,0.42,0.76,0.63
		c0.02,0.02,0.05,0.04,0.07,0.06c0.28,0.24,0.56,0.47,0.85,0.71c0.07,0.06,0.14,0.11,0.2,0.16c0.22,0.18,0.44,0.35,0.67,0.53
		c0.08,0.06,0.15,0.12,0.23,0.18c0.24,0.18,0.48,0.36,0.72,0.54c0.05,0.04,0.1,0.08,0.15,0.11c0.6,0.43,1.21,0.85,1.83,1.25
		c0.05,0.03,0.11,0.07,0.16,0.1c0.26,0.17,0.52,0.33,0.78,0.49c0.06,0.04,0.12,0.07,0.18,0.11c0.29,0.17,0.58,0.34,0.87,0.51
		c0.02,0.01,0.04,0.02,0.06,0.03c0.64,0.36,1.29,0.71,1.94,1.04c0.06,0.03,0.12,0.06,0.18,0.09c0.26,0.13,0.53,0.26,0.79,0.38
		c0.07,0.03,0.14,0.07,0.22,0.1c0.28,0.13,0.56,0.26,0.85,0.38c0.04,0.02,0.09,0.04,0.13,0.06c0.33,0.14,0.65,0.27,0.98,0.41
		c0.07,0.03,0.14,0.05,0.21,0.08c0.25,0.1,0.49,0.19,0.74,0.28c0.13,0.05,0.25,0.09,0.38,0.14c0.19,0.07,0.38,0.13,0.57,0.2
		c0.15,0.05,0.3,0.1,0.45,0.15c0.17,0.05,0.33,0.11,0.5,0.16c0.68,0.21,1.37,0.41,2.06,0.58c0.08,0.02,0.15,0.04,0.23,0.06
		c0.25,0.06,0.49,0.12,0.74,0.18c0.06,0.01,0.11,0.03,0.17,0.04c2.91,0.65,5.9,0.98,8.94,0.98c0.01,0,0.02,0,0.03,0
		c0.01,0,0.03,0,0.04,0c0.29,0,0.59,0,0.88-0.01c0.04,0,0.07,0,0.11,0c0.81-0.02,1.63-0.07,2.45-0.13c0.13-0.01,0.27-0.02,0.4-0.03
		c0.19-0.02,0.38-0.04,0.57-0.06c0.18-0.02,0.36-0.04,0.54-0.06c0.16-0.02,0.33-0.04,0.49-0.06c0.23-0.03,0.45-0.06,0.68-0.09
		c0.12-0.02,0.25-0.03,0.37-0.05c0.36-0.06,0.72-0.11,1.08-0.18c0.35-0.06,0.7-0.12,1.05-0.16c0.1-0.01,0.2-0.02,0.3-0.04
		c0.25-0.03,0.5-0.06,0.75-0.08c0.13-0.01,0.25-0.02,0.38-0.03c0.22-0.02,0.45-0.03,0.67-0.05c0.14-0.01,0.27-0.01,0.41-0.02
		c0.22-0.01,0.44-0.01,0.66-0.01c0.13,0,0.27-0.01,0.4,0c0.22,0,0.43,0.01,0.65,0.01c0.21,0.01,0.42,0.01,0.63,0.03
		c0.23,0.01,0.45,0.02,0.68,0.04c0.19,0.02,0.38,0.04,0.57,0.06c0.13,0.01,0.27,0.03,0.4,0.04c0.21,0.02,0.41,0.05,0.61,0.08
		c0.11,0.02,0.23,0.03,0.34,0.05c0.21,0.03,0.43,0.07,0.64,0.11c0.1,0.02,0.19,0.04,0.29,0.06c0.23,0.04,0.45,0.09,0.67,0.14
		c0.08,0.02,0.15,0.04,0.23,0.05c0.24,0.06,0.48,0.12,0.72,0.18c0.04,0.01,0.07,0.02,0.11,0.03c1.11,0.3,2.2,0.68,3.26,1.13
		c0.05,0.02,0.1,0.04,0.14,0.06c0.21,0.09,0.43,0.19,0.64,0.29c0.08,0.04,0.17,0.08,0.25,0.12c0.19,0.09,0.39,0.19,0.58,0.29
		c0.1,0.05,0.2,0.1,0.3,0.15c0.18,0.09,0.36,0.19,0.54,0.29c0.11,0.06,0.21,0.12,0.32,0.18c0.17,0.1,0.34,0.2,0.5,0.3
		c0.11,0.07,0.22,0.14,0.33,0.21c0.16,0.1,0.32,0.2,0.48,0.31c0.11,0.07,0.21,0.15,0.32,0.22c0.16,0.11,0.32,0.22,0.48,0.33
		c0.07,0.05,0.14,0.1,0.21,0.15c0.38,0.28,0.74,0.56,1.1,0.86c0.06,0.05,0.11,0.09,0.17,0.13c0.17,0.14,0.34,0.29,0.51,0.44
		c0.07,0.06,0.14,0.13,0.22,0.19c0.17,0.15,0.34,0.31,0.5,0.47c0.06,0.06,0.13,0.12,0.19,0.18c0.17,0.17,0.34,0.34,0.51,0.51
		c0.05,0.05,0.1,0.1,0.15,0.16c0.18,0.19,0.35,0.38,0.53,0.57c0.03,0.04,0.07,0.07,0.1,0.11c0.19,0.21,0.37,0.42,0.55,0.64
		c0.01,0.02,0.03,0.03,0.04,0.05c0.59,0.72,1.15,1.47,1.67,2.26c0.01,0.01,0.01,0.02,0.02,0.02c1.49,2.27,2.63,4.81,3.33,7.56
		c0.53,2.12,0.8,4.28,0.8,6.42c0,8.29-4.05,16.05-10.82,20.76c-2.05,1.42-4.16,2.79-6.28,4.05c-1.28,0.76-1.7,2.41-0.94,3.69
		c0.76,1.28,2.41,1.7,3.69,0.94c2.23-1.32,4.45-2.76,6.6-4.25c8.22-5.72,13.13-15.14,13.13-25.19c0-2.58-0.32-5.18-0.97-7.75
		c-0.77-2.98-1.96-5.77-3.49-8.3c0.6-3.62,0.91-7.32,0.91-11c0-3.16-0.23-6.33-0.68-9.47c1.33-0.87,2.21-2.36,2.21-4.06v-5.21h1.62
		c2.67,0,4.85-2.18,4.85-4.85v-5.75c0-2.67-2.18-4.85-4.85-4.85h-12.59c-5.19-8.68-12.33-16.12-20.77-21.68
		c-0.13-0.93-0.36-1.86-0.7-2.75c-1.32-3.52-4.04-6.2-7.49-7.49c-0.14-6.1-4.4-11.57-10.52-13.02c-5.98-1.42-12.05,1.32-15.01,6.49
		c-2.03-0.69-4.18-0.85-6.32-0.46c-3.24-5.22-9.67-7.71-15.69-5.83c-3.64,1.14-6.6,3.74-8.23,7.1c-2.19-0.65-4.59-0.67-6.92,0.06
		c-5.14,1.6-8.49,6.47-8.37,11.68c-2.8,1.36-4.91,3.81-5.82,6.87c-0.7,2.35-0.6,4.83,0.19,7.09C39.76,66.37,33.19,82.67,33.19,100
		C33.19,101.56,33.25,103.16,33.37,104.77z M162.96,85.93h-35.92v-4.67h5.93h0h29.99V85.93z M169.42,75.87h-5.93H133.5V71.2h22.32
		h13.59V75.87z M150.99,65.82h-18.03c-2.67,0-4.85,2.18-4.85,4.85v5.21h-1.62c-2.67,0-4.85,2.18-4.85,4.85v5.75
		c0,2.67,2.18,4.85,4.85,4.85h34.31c0.41,2.88,0.62,5.79,0.62,8.68c0,1.69-0.07,3.38-0.21,5.06c-0.26-0.26-0.53-0.51-0.79-0.76
		c-0.05-0.04-0.09-0.08-0.14-0.13c-0.28-0.25-0.56-0.5-0.85-0.75c-0.02-0.02-0.05-0.04-0.07-0.06c-0.61-0.51-1.23-0.99-1.87-1.45
		c-0.03-0.02-0.06-0.05-0.1-0.07c-0.32-0.22-0.64-0.44-0.96-0.66c-0.03-0.02-0.05-0.03-0.08-0.05c-0.32-0.21-0.65-0.42-0.98-0.61
		c-0.01-0.01-0.02-0.02-0.04-0.02c-0.32-0.19-0.64-0.37-0.97-0.55c-0.07-0.04-0.13-0.07-0.2-0.11c-0.31-0.17-0.62-0.33-0.94-0.49
		c-0.08-0.04-0.16-0.08-0.23-0.11c-0.27-0.13-0.55-0.26-0.83-0.39c-0.08-0.04-0.17-0.08-0.25-0.11c-0.29-0.12-0.57-0.24-0.86-0.36
		c-0.12-0.05-0.24-0.09-0.35-0.14c-0.29-0.11-0.58-0.22-0.88-0.32c-0.13-0.05-0.26-0.09-0.39-0.13c-0.24-0.08-0.48-0.16-0.72-0.23
		c-0.17-0.05-0.34-0.1-0.51-0.15c-0.23-0.07-0.47-0.13-0.7-0.2c-0.14-0.04-0.27-0.07-0.41-0.11c-0.3-0.08-0.6-0.15-0.9-0.21
		c-0.13-0.03-0.27-0.06-0.4-0.09c-0.32-0.06-0.63-0.13-0.95-0.18c-0.1-0.02-0.2-0.03-0.3-0.05c-0.29-0.05-0.57-0.09-0.86-0.13
		c-0.09-0.01-0.18-0.03-0.28-0.04c-0.35-0.04-0.7-0.08-1.06-0.11c-0.09-0.01-0.19-0.02-0.28-0.02c-0.36-0.03-0.73-0.05-1.09-0.07
		c-0.07,0-0.14-0.01-0.21-0.01c-0.39-0.01-0.78-0.02-1.17-0.02c0,0-0.01,0-0.01,0c-0.36,0-0.73,0.01-1.09,0.02
		c-0.09,0-0.18,0.01-0.27,0.01c-0.06,0-0.12,0.01-0.17,0.01c-0.17,0.01-0.34,0.02-0.52,0.03c0,0,0,0-0.01,0
		c-1.13,0.08-2.27,0.21-3.41,0.42c-0.32,0.06-0.63,0.11-0.95,0.16c-0.09,0.01-0.18,0.03-0.27,0.04c-0.22,0.03-0.45,0.06-0.67,0.09
		c-0.11,0.01-0.22,0.03-0.33,0.04c-0.21,0.03-0.42,0.05-0.63,0.07c-0.11,0.01-0.21,0.02-0.32,0.03c-0.25,0.02-0.5,0.04-0.75,0.06
		c-0.06,0-0.12,0.01-0.18,0.01c-0.32,0.02-0.64,0.04-0.96,0.05c-0.03,0-0.07,0-0.1,0c-0.28,0.01-0.57,0.02-0.85,0.02
		c-0.07,0-0.14,0-0.22,0c-0.25,0-0.5,0-0.75,0c-0.07,0-0.14,0-0.22,0c-0.28,0-0.55-0.01-0.82-0.02c-0.04,0-0.07,0-0.11,0
		c-0.65-0.03-1.29-0.07-1.93-0.13c-0.03,0-0.05-0.01-0.08-0.01c-0.3-0.03-0.61-0.06-0.91-0.1c-0.02,0-0.03,0-0.05-0.01
		c-5.24-0.65-10.24-2.47-14.76-5.38c0,0,0,0,0,0c-0.56-0.36-1.11-0.74-1.65-1.13c-0.02-0.02-0.05-0.04-0.07-0.05
		c-0.23-0.17-0.46-0.34-0.68-0.51c-0.06-0.04-0.12-0.09-0.18-0.13c-0.2-0.16-0.4-0.31-0.6-0.48c-0.05-0.04-0.11-0.09-0.16-0.13
		c-0.25-0.2-0.5-0.41-0.74-0.62c-0.02-0.02-0.05-0.04-0.07-0.06c-0.29-0.25-0.58-0.49-0.87-0.72c-0.07-0.06-0.14-0.11-0.21-0.16
		c-8.08-6.49-17.67-9.91-27.84-9.91c-1.91,0-3.81,0.13-5.7,0.37c-1.46,0.18-2.92,0.43-4.38,0.75c-9.29,2.06-17.45,6.83-23.63,13.63
		c-0.96,1.04-1.87,2.12-2.72,3.23c0.96-13.88,6.55-26.85,16.01-37.15c0.77,0.84,1.9,2.05,3.6,3.86c1.11,1.19,2.48,2.64,4.16,4.44
		l0.72,0.77c0.99,1.06,2.21,1.87,3.55,2.37c1.04,0.39,2.15,0.6,3.28,0.6c0.02,0,0.03,0,0.05,0c0,0,9.72-0.05,13.38-0.07
		c2.98,3.61,7.83,5.04,12.27,3.65c0.01,0,0.01,0,0.02-0.01c0.16-0.05,0.32-0.1,0.47-0.16c0.03-0.01,0.07-0.02,0.1-0.04
		c0.13-0.05,0.26-0.1,0.4-0.16c0.04-0.02,0.08-0.03,0.12-0.05c0.14-0.06,0.27-0.12,0.41-0.18c0.03-0.01,0.05-0.02,0.08-0.04
		c0.03-0.01,0.05-0.02,0.08-0.04c0.13-0.06,0.26-0.13,0.38-0.2c0.01,0,0.01-0.01,0.02-0.01c0.1-0.06,0.21-0.12,0.31-0.18
		c0.33-0.2,0.66-0.41,0.97-0.63c0.06,0.05,0.13,0.09,0.2,0.14c0.04,0.03,0.07,0.05,0.11,0.08c0.15,0.1,0.31,0.21,0.47,0.3
		c0.03,0.02,0.06,0.03,0.08,0.05c0.13,0.08,0.27,0.16,0.41,0.23c0.05,0.03,0.09,0.05,0.14,0.07c0.14,0.08,0.29,0.15,0.43,0.22
		c0.02,0.01,0.05,0.02,0.07,0.04c0.17,0.08,0.34,0.15,0.51,0.22c0.04,0.02,0.09,0.03,0.13,0.05c0.14,0.05,0.27,0.1,0.41,0.15
		c0.05,0.02,0.09,0.03,0.14,0.05c0.18,0.06,0.35,0.12,0.53,0.17c0.02,0.01,0.04,0.01,0.06,0.01c0.16,0.05,0.33,0.09,0.49,0.12
		c0.05,0.01,0.1,0.02,0.15,0.03c0.15,0.03,0.3,0.06,0.46,0.09c0.04,0.01,0.07,0.01,0.11,0.02c0.19,0.03,0.37,0.06,0.56,0.08
		c0.04,0,0.08,0.01,0.13,0.01c0.15,0.02,0.3,0.03,0.46,0.04c0.05,0,0.1,0.01,0.15,0.01c0.19,0.01,0.38,0.02,0.58,0.02
		c0.01,0,0.03,0,0.04,0c0.2,0,0.4-0.01,0.6-0.02c0.05,0,0.09-0.01,0.14-0.01c0.17-0.01,0.34-0.03,0.51-0.04
		c0.03,0,0.07-0.01,0.1-0.01c0.19-0.02,0.37-0.05,0.56-0.08c0.01,0,0.03,0,0.04-0.01c1.95-0.34,3.73-1.17,5.21-2.36
		c0.01,0,0.01-0.01,0.02-0.01c0.16-0.13,0.32-0.27,0.48-0.41c0,0,0.01-0.01,0.01-0.01c0.15-0.14,0.3-0.28,0.45-0.43
		c0.05-0.05,0.1-0.1,0.15-0.15c0.09-0.09,0.17-0.18,0.26-0.27c0.07-0.08,0.14-0.16,0.21-0.24c0.06-0.07,0.11-0.13,0.17-0.2
		c0.03-0.04,0.07-0.08,0.1-0.12l0.92,0c2.31-0.01,4.52-0.77,6.32-2.13c0.68-0.51,1.31-1.11,1.86-1.79l9.79-12.07
		c0.16-0.2,0.32-0.41,0.47-0.62c0.03-0.04,0.06-0.09,0.09-0.13c0.7-1,1.25-2.09,1.65-3.23C141.87,54.54,146.96,59.82,150.99,65.82z
		 M92.71,57.03c0.1,0.01,0.2,0.01,0.3,0.03c0.02,0,0.04,0.01,0.07,0.01c0.09,0.01,0.17,0.02,0.26,0.04c0.03,0,0.06,0.01,0.09,0.02
		c0.08,0.01,0.15,0.03,0.23,0.04c0.03,0.01,0.07,0.02,0.1,0.02c0.07,0.02,0.14,0.03,0.2,0.05c0.04,0.01,0.08,0.02,0.12,0.03
		c0.06,0.02,0.12,0.04,0.18,0.06c0.05,0.01,0.09,0.03,0.14,0.05c0.05,0.02,0.1,0.04,0.15,0.06c0.05,0.02,0.1,0.04,0.15,0.06
		c0.04,0.02,0.08,0.03,0.12,0.05c0.06,0.03,0.12,0.05,0.18,0.08c0.02,0.01,0.04,0.02,0.07,0.03c0.51,0.25,0.98,0.58,1.4,0.96
		c0,0,0.01,0.01,0.01,0.01c0.07,0.06,0.14,0.13,0.2,0.19c0,0,0.01,0.01,0.01,0.01c0.07,0.07,0.13,0.13,0.19,0.2c0,0,0,0,0,0
		c0.07,0.08,0.14,0.16,0.21,0.24c0.08,0.1,0.16,0.2,0.23,0.31c0.03,0.04,0.05,0.08,0.08,0.11c0.08,0.12,0.16,0.24,0.23,0.36
		c0.02,0.03,0.04,0.06,0.05,0.09c0.07,0.13,0.15,0.27,0.21,0.41c0.01,0.02,0.01,0.03,0.02,0.05c0.21,0.47,0.37,0.96,0.46,1.46
		c0,0.01,0,0.03,0.01,0.04c0.03,0.16,0.05,0.32,0.06,0.49c0,0.02,0,0.04,0,0.06c0.01,0.16,0.02,0.33,0.02,0.5
		c0,0.17-0.01,0.33-0.02,0.5c0,0.02,0,0.04,0,0.06c-0.01,0.16-0.04,0.32-0.06,0.49c0,0.01,0,0.03-0.01,0.04
		c-0.09,0.51-0.25,1-0.46,1.46c-0.01,0.02-0.01,0.03-0.02,0.05c-0.06,0.14-0.14,0.27-0.21,0.41c-0.02,0.03-0.04,0.06-0.05,0.09
		c-0.07,0.12-0.15,0.24-0.23,0.36c-0.03,0.04-0.06,0.08-0.08,0.12c-0.07,0.1-0.15,0.2-0.23,0.3c-0.12,0.15-0.25,0.29-0.38,0.43
		c-0.35,0.34-0.92,0.82-1.59,1.16c-0.03,0.02-0.06,0.03-0.1,0.05c-0.15,0.07-0.3,0.14-0.45,0.2c-0.03,0.01-0.06,0.03-0.09,0.04
		c-0.14,0.05-0.28,0.1-0.42,0.14c-0.05,0.02-0.11,0.03-0.16,0.05c-0.12,0.03-0.24,0.06-0.36,0.08c-0.08,0.02-0.16,0.03-0.24,0.04
		c-0.04,0.01-0.08,0.01-0.12,0.02c-0.27,0.04-0.54,0.06-0.82,0.06c-0.32,0-0.63-0.02-0.93-0.07c0,0,0,0,0,0
		c-0.5-0.08-0.99-0.22-1.44-0.41c-0.01,0-0.02-0.01-0.03-0.01c-0.17-0.07-0.33-0.15-0.49-0.23c-0.02-0.01-0.04-0.02-0.06-0.04
		c-0.15-0.08-0.29-0.17-0.43-0.26c-0.03-0.02-0.05-0.04-0.08-0.06c-0.12-0.09-0.25-0.18-0.36-0.27c-0.04-0.03-0.08-0.06-0.12-0.1
		c-0.09-0.08-0.18-0.16-0.27-0.25c-0.06-0.06-0.12-0.12-0.18-0.18c-0.05-0.06-0.11-0.11-0.16-0.17c-0.09-0.1-0.17-0.2-0.25-0.3
		c-0.03-0.03-0.06-0.07-0.08-0.1c-0.1-0.13-0.19-0.26-0.27-0.4c-0.02-0.03-0.04-0.06-0.06-0.09c-0.06-0.1-0.12-0.19-0.17-0.29
		c-0.02-0.04-0.04-0.08-0.06-0.12c-0.04-0.07-0.07-0.15-0.11-0.22c-0.02-0.04-0.04-0.08-0.05-0.12c-0.05-0.11-0.09-0.22-0.13-0.33
		c-0.01-0.02-0.01-0.04-0.02-0.06c-0.03-0.1-0.07-0.2-0.1-0.3c-0.01-0.03-0.02-0.07-0.03-0.1c-0.03-0.1-0.06-0.21-0.08-0.32
		c0-0.02-0.01-0.04-0.01-0.05c-0.03-0.12-0.05-0.25-0.07-0.37c0-0.03-0.01-0.06-0.01-0.09c-0.01-0.1-0.02-0.2-0.03-0.29
		c0-0.04-0.01-0.07-0.01-0.11c-0.01-0.12-0.01-0.24-0.01-0.37c0,0,0-0.01,0-0.01c0-1.15,0.32-2.23,0.87-3.15
		c1.07-1.78,3.02-2.98,5.25-2.98c0.11,0,0.22,0,0.34,0.01C92.69,57.03,92.7,57.03,92.71,57.03z M102.67,57.94
		c0.09-0.06,0.19-0.11,0.28-0.17c0.02-0.01,0.04-0.02,0.05-0.03c0.11-0.06,0.23-0.12,0.35-0.17c0.03-0.01,0.06-0.03,0.09-0.04
		c0.09-0.04,0.18-0.08,0.27-0.11c0.04-0.01,0.08-0.03,0.12-0.04c0.09-0.03,0.18-0.06,0.27-0.09c0.03-0.01,0.07-0.02,0.1-0.03
		c0.12-0.04,0.25-0.07,0.37-0.09c0.03-0.01,0.05-0.01,0.08-0.02c0.1-0.02,0.2-0.04,0.3-0.05c0.04-0.01,0.09-0.01,0.13-0.02
		c0.09-0.01,0.18-0.02,0.27-0.03c0.04,0,0.08-0.01,0.13-0.01c0.12-0.01,0.25-0.01,0.38-0.01c0.01,0,0.01,0,0.02,0
		c0.16,0,0.32,0.01,0.47,0.02c0.03,0,0.05,0,0.08,0.01c0.15,0.01,0.3,0.03,0.45,0.06c0.03,0,0.05,0.01,0.08,0.01
		c0.15,0.03,0.31,0.06,0.46,0.1c0.01,0,0.01,0,0.02,0.01c0.15,0.04,0.29,0.08,0.43,0.13c0.02,0.01,0.05,0.02,0.07,0.02
		c0.13,0.05,0.25,0.09,0.37,0.15c0.04,0.02,0.08,0.04,0.12,0.05c0.1,0.04,0.19,0.09,0.29,0.14c0.05,0.03,0.11,0.06,0.16,0.09
		c0.08,0.04,0.16,0.09,0.24,0.14c0.05,0.03,0.1,0.06,0.15,0.1c0.09,0.06,0.18,0.13,0.27,0.19c0.05,0.04,0.1,0.08,0.14,0.11
		c0.06,0.05,0.11,0.09,0.17,0.14c0.04,0.04,0.09,0.08,0.13,0.12c0.08,0.08,0.17,0.16,0.25,0.24c0.04,0.04,0.07,0.08,0.11,0.11
		c0.07,0.08,0.14,0.15,0.21,0.23c0.02,0.02,0.04,0.05,0.06,0.07c0.08,0.1,0.16,0.2,0.24,0.31c0.02,0.02,0.03,0.05,0.05,0.07
		c0.17,0.24,0.32,0.49,0.45,0.75c0,0,0,0.01,0.01,0.01c0.21,0.41,0.37,0.85,0.48,1.3c0,0.01,0,0.01,0,0.02
		c0.07,0.29,0.12,0.59,0.14,0.89c0,0.02,0,0.05,0.01,0.07c0.01,0.15,0.02,0.29,0.02,0.44c0,0.13,0,0.25-0.01,0.38
		c0,0.03,0,0.05-0.01,0.08c-0.01,0.1-0.02,0.21-0.03,0.31c0,0.02-0.01,0.05-0.01,0.07c-0.04,0.26-0.09,0.51-0.15,0.76
		c0,0.01,0,0.01-0.01,0.02c-0.03,0.11-0.07,0.23-0.1,0.34c-0.01,0.02-0.01,0.04-0.02,0.06c-0.04,0.12-0.08,0.23-0.13,0.35
		c0,0,0,0,0,0c-0.05,0.11-0.1,0.23-0.15,0.34c-0.01,0.03-0.03,0.06-0.04,0.09c-0.04,0.08-0.08,0.16-0.13,0.23
		c-0.02,0.03-0.04,0.07-0.06,0.1c-0.06,0.1-0.12,0.2-0.18,0.29c-0.01,0.01-0.02,0.03-0.03,0.04c-0.06,0.09-0.12,0.18-0.19,0.26
		c-0.02,0.03-0.04,0.06-0.07,0.08c-0.06,0.08-0.12,0.15-0.18,0.22c-0.02,0.02-0.03,0.04-0.05,0.05c-0.17,0.19-0.36,0.37-0.55,0.54
		c0,0,0,0,0,0c-0.89,0.77-2,1.28-3.18,1.44c-0.02,0-0.04,0-0.06,0.01c-0.1,0.01-0.2,0.02-0.31,0.03c-0.03,0-0.06,0.01-0.09,0.01
		c-0.12,0.01-0.24,0.01-0.35,0.01c-0.01,0-0.01,0-0.02,0c-0.13,0-0.26-0.01-0.39-0.01c-0.03,0-0.07,0-0.1-0.01
		c-0.11-0.01-0.22-0.02-0.32-0.03c-0.02,0-0.05-0.01-0.07-0.01c-0.13-0.02-0.25-0.04-0.38-0.07c-0.03-0.01-0.05-0.01-0.08-0.02
		c-0.1-0.02-0.2-0.05-0.31-0.08c-0.03-0.01-0.06-0.02-0.09-0.03c-0.12-0.04-0.25-0.08-0.37-0.12c-0.01,0-0.02-0.01-0.03-0.01
		c-0.11-0.04-0.22-0.09-0.33-0.13c-0.03-0.01-0.06-0.03-0.09-0.04c-0.1-0.05-0.2-0.1-0.3-0.15c-0.01-0.01-0.03-0.02-0.04-0.02
		c-0.11-0.06-0.22-0.13-0.33-0.19c-0.01-0.01-0.02-0.01-0.03-0.02c0.01-0.03,0.02-0.05,0.04-0.08c0.07-0.15,0.15-0.3,0.21-0.46
		c0.01-0.03,0.03-0.06,0.04-0.09c0.26-0.6,0.46-1.22,0.62-1.86c0.01-0.02,0.01-0.05,0.02-0.07c0.04-0.18,0.08-0.37,0.12-0.55
		c0.01-0.04,0.01-0.08,0.02-0.12c0.03-0.17,0.05-0.34,0.08-0.51c0.01-0.05,0.01-0.1,0.02-0.15c0.02-0.17,0.03-0.33,0.04-0.5
		c0-0.05,0.01-0.1,0.01-0.15c0.01-0.21,0.02-0.43,0.02-0.64s-0.01-0.43-0.02-0.64c0-0.05-0.01-0.1-0.01-0.15
		c-0.01-0.17-0.03-0.33-0.04-0.5c-0.01-0.05-0.01-0.1-0.02-0.15c-0.02-0.17-0.05-0.34-0.08-0.51c-0.01-0.04-0.01-0.08-0.02-0.12
		c-0.03-0.19-0.07-0.37-0.12-0.55c-0.01-0.02-0.01-0.05-0.02-0.07c-0.15-0.64-0.36-1.26-0.62-1.86c-0.01-0.03-0.03-0.06-0.04-0.09
		c-0.07-0.15-0.14-0.31-0.21-0.46c-0.01-0.03-0.02-0.05-0.04-0.08C102.64,57.96,102.65,57.95,102.67,57.94z M106.94,31.38
		c1.43-3.97,5.6-6.22,9.71-5.25c4.2,0.99,6.96,5.11,6.28,9.36c-0.23,1.46,0.75,2.83,2.2,3.08c2.7,0.47,4.79,2.18,5.73,4.71
		c0.3,0.8,0.46,1.61,0.5,2.43c0,0.02,0,0.05,0,0.07c0.02,0.49-0.01,1.07-0.13,1.7c0,0,0,0,0,0.01c-0.03,0.14-0.06,0.29-0.1,0.44
		c-0.02,0.08-0.04,0.15-0.06,0.23c-0.01,0.05-0.03,0.1-0.05,0.15c-0.03,0.11-0.07,0.22-0.11,0.33c-0.01,0.03-0.02,0.05-0.03,0.08
		c-0.11,0.3-0.24,0.59-0.39,0.87c-0.01,0.01-0.01,0.02-0.02,0.03c-0.07,0.13-0.14,0.25-0.21,0.38c-0.02,0.03-0.03,0.05-0.05,0.08
		c-0.07,0.11-0.14,0.22-0.22,0.33c-0.02,0.03-0.04,0.06-0.06,0.08c-0.09,0.13-0.19,0.26-0.3,0.39l-9.79,12.07
		c-0.01,0.01-0.01,0.01-0.02,0.02c-0.07,0.08-0.14,0.16-0.21,0.24c-0.03,0.03-0.05,0.06-0.08,0.08c-0.06,0.06-0.12,0.12-0.18,0.18
		c-0.03,0.02-0.05,0.05-0.08,0.07c-0.09,0.08-0.17,0.15-0.26,0.22c-0.01,0.01-0.03,0.02-0.04,0.03c-0.08,0.06-0.16,0.12-0.24,0.18
		c-0.03,0.02-0.06,0.04-0.09,0.06c-0.07,0.05-0.15,0.09-0.22,0.14c-0.03,0.02-0.05,0.03-0.08,0.05c-0.1,0.06-0.2,0.11-0.31,0.16
		c-0.02,0.01-0.04,0.02-0.06,0.03c-0.09,0.04-0.17,0.08-0.26,0.11c-0.03,0.01-0.06,0.03-0.1,0.04c-0.09,0.03-0.17,0.06-0.26,0.09
		c-0.02,0.01-0.04,0.01-0.05,0.02c0-0.03,0-0.05,0.01-0.08c0.02-0.19,0.04-0.38,0.06-0.57c0-0.05,0.01-0.11,0.01-0.16
		c0.01-0.23,0.02-0.47,0.02-0.7c0-0.22-0.01-0.45-0.02-0.67c0-0.05-0.01-0.1-0.01-0.15c-0.01-0.17-0.03-0.35-0.05-0.52
		c-0.01-0.05-0.01-0.1-0.02-0.16c-0.02-0.18-0.05-0.36-0.08-0.54c-0.01-0.03-0.01-0.07-0.02-0.1c-0.17-0.9-0.44-1.76-0.81-2.57
		c-0.01-0.01-0.01-0.03-0.02-0.04c-0.09-0.19-0.18-0.38-0.28-0.57c-0.01-0.01-0.01-0.02-0.02-0.03c-0.21-0.39-0.43-0.77-0.68-1.13
		c-0.03-0.04-0.06-0.08-0.08-0.12c-0.09-0.13-0.18-0.25-0.27-0.38c-0.05-0.07-0.11-0.14-0.16-0.2c-0.07-0.09-0.14-0.18-0.22-0.26
		c-0.07-0.08-0.14-0.16-0.21-0.24c-0.06-0.07-0.12-0.13-0.18-0.19c-0.31-0.33-0.64-0.64-0.98-0.93c-0.04-0.03-0.07-0.06-0.11-0.09
		c-0.11-0.09-0.23-0.18-0.34-0.27c-0.05-0.03-0.09-0.07-0.14-0.1c-0.07-0.05-0.13-0.1-0.2-0.15c0.07-0.17,0.13-0.34,0.18-0.51
		c0.01-0.02,0.01-0.04,0.02-0.06c0.06-0.19,0.12-0.38,0.17-0.57c0.02-0.06,0.03-0.12,0.05-0.18c0.04-0.16,0.08-0.33,0.11-0.49
		c0.01-0.05,0.02-0.1,0.03-0.16c0.04-0.21,0.08-0.42,0.1-0.64c0-0.04,0.01-0.07,0.01-0.11c0.02-0.18,0.04-0.36,0.05-0.54
		c0-0.06,0.01-0.12,0.01-0.19c0.01-0.18,0.02-0.35,0.02-0.53c0-0.04,0-0.08,0-0.13c0-0.22-0.01-0.43-0.02-0.65
		c0-0.05-0.01-0.09-0.01-0.14c-0.01-0.17-0.03-0.35-0.05-0.52c-0.01-0.06-0.01-0.12-0.02-0.18c-0.03-0.19-0.06-0.39-0.09-0.58
		c0-0.02-0.01-0.05-0.01-0.07c-0.04-0.22-0.09-0.43-0.15-0.65c-0.01-0.05-0.03-0.11-0.04-0.16c-0.04-0.17-0.09-0.34-0.15-0.5
		c-0.02-0.06-0.04-0.12-0.06-0.17c-0.07-0.21-0.15-0.43-0.23-0.64c-1.15-2.88-3.38-5.09-6.19-6.22c0,0,0,0,0,0
		c-0.01-0.23-0.03-0.45-0.05-0.68c-0.01-0.05-0.01-0.1-0.02-0.16c-0.03-0.22-0.06-0.44-0.09-0.65c-0.01-0.04-0.01-0.07-0.02-0.11
		c-0.04-0.19-0.08-0.38-0.12-0.57c-0.01-0.05-0.02-0.1-0.03-0.14c-0.05-0.21-0.11-0.42-0.17-0.62c-0.01-0.05-0.03-0.09-0.05-0.14
		c-0.06-0.18-0.12-0.37-0.19-0.55c-0.01-0.03-0.02-0.07-0.04-0.1c-0.08-0.2-0.16-0.4-0.25-0.59c-0.02-0.05-0.05-0.1-0.07-0.15
		c-0.09-0.19-0.18-0.39-0.29-0.58c-0.01-0.01-0.01-0.02-0.02-0.04c-0.1-0.18-0.2-0.37-0.31-0.55c-0.02-0.03-0.03-0.05-0.05-0.08
		C105.58,33.25,106.54,32.5,106.94,31.38z M82.47,26.22c3.02-0.94,6.21-0.07,8.33,2.05c-0.04,0.01-0.08,0.03-0.12,0.04
		c-0.09,0.03-0.17,0.06-0.26,0.09c-0.07,0.03-0.15,0.05-0.22,0.08c-0.09,0.03-0.17,0.07-0.26,0.1c-0.07,0.03-0.14,0.05-0.21,0.08
		c-0.09,0.04-0.19,0.08-0.28,0.12c-0.06,0.03-0.12,0.05-0.18,0.08c-0.15,0.07-0.29,0.14-0.43,0.21c-0.06,0.03-0.11,0.06-0.17,0.09
		c-0.09,0.05-0.18,0.1-0.27,0.15c-0.06,0.04-0.13,0.07-0.19,0.11c-0.08,0.05-0.16,0.1-0.24,0.15c-0.06,0.04-0.13,0.08-0.19,0.12
		c-0.08,0.05-0.15,0.1-0.23,0.15c-0.06,0.04-0.12,0.08-0.18,0.13c-0.08,0.06-0.15,0.11-0.23,0.17c-0.06,0.04-0.11,0.09-0.17,0.13
		c-0.08,0.06-0.16,0.13-0.24,0.2c-0.05,0.04-0.1,0.08-0.14,0.12c-0.12,0.11-0.25,0.21-0.37,0.32c-0.03,0.03-0.06,0.06-0.09,0.09
		c-0.09,0.09-0.18,0.17-0.27,0.26c-0.05,0.05-0.09,0.09-0.13,0.14c-0.07,0.07-0.14,0.15-0.21,0.23c-0.05,0.05-0.09,0.1-0.14,0.16
		c-0.07,0.08-0.13,0.15-0.2,0.23c-0.05,0.05-0.09,0.11-0.13,0.16c-0.06,0.08-0.13,0.16-0.19,0.24c-0.04,0.05-0.08,0.11-0.12,0.16
		c-0.07,0.09-0.13,0.18-0.19,0.27c-0.03,0.05-0.07,0.1-0.1,0.15c-0.09,0.13-0.18,0.27-0.27,0.41c0,0.01-0.01,0.01-0.01,0.02
		c0,0-0.01,0-0.01,0c-0.23-0.07-0.46-0.13-0.69-0.18c-0.07-0.02-0.15-0.03-0.22-0.05c-0.17-0.04-0.34-0.07-0.51-0.1
		c-0.08-0.01-0.16-0.03-0.24-0.04c-0.2-0.03-0.4-0.05-0.6-0.07c-0.04,0-0.08-0.01-0.13-0.01c-0.24-0.02-0.48-0.03-0.72-0.03
		c-0.02,0-0.04,0-0.06,0c-0.15,0-0.31,0-0.46,0.01c-0.02,0-0.04,0-0.06,0c-0.17,0.01-0.34,0.02-0.51,0.04
		c-0.04,0-0.09,0.01-0.13,0.01c-0.19,0.02-0.37,0.04-0.56,0.07c-0.13-0.2-0.27-0.39-0.4-0.58c-0.01-0.02-0.03-0.04-0.04-0.06
		c-0.44-0.59-0.93-1.13-1.46-1.62C78.3,28.65,80.16,26.95,82.47,26.22z M56.7,48.31c0.6-2.03,2.14-3.48,4.22-4
		c1.43-0.35,2.31-1.79,1.98-3.22c-0.77-3.31,1.17-6.7,4.42-7.72c0.65-0.2,1.3-0.3,1.95-0.3c1.23,0,2.43,0.35,3.46,0.99
		c0.01,0.01,0.02,0.01,0.03,0.02c1.1,0.69,1.96,1.69,2.48,2.87c0.04,0.08,0.08,0.16,0.12,0.23c0,0.01,0.01,0.02,0.01,0.03
		c0.03,0.05,0.06,0.1,0.1,0.15c0.02,0.03,0.04,0.06,0.06,0.09c0.01,0.02,0.03,0.03,0.04,0.05c0.78,1.07,2.2,1.56,3.48,1.13
		c1.62-0.54,3.3-0.38,4.75,0.46c0.19,0.11,0.4,0.2,0.61,0.26c0.02,0.01,0.04,0.02,0.07,0.02c0,0,0,0,0,0c0,0,0,0,0,0
		c0.07,0.02,0.15,0.03,0.22,0.05c0.02,0,0.05,0.01,0.07,0.01c0.04,0.01,0.08,0.01,0.12,0.01c1.27,0.16,2.49-0.48,3.09-1.61
		c0.07-0.13,0.13-0.27,0.18-0.41c0.91-2.54,3.26-4.19,5.84-4.31c0.6-0.03,1.21,0.03,1.81,0.17c0.83,0.2,1.59,0.55,2.25,1.01
		c1.74,1.23,2.81,3.26,2.79,5.44c0,0.31-0.03,0.62-0.08,0.94c-0.03,0.18-0.04,0.36-0.03,0.54c0.05,1.24,0.96,2.32,2.23,2.54
		c2.06,0.36,3.68,1.66,4.44,3.57c0.06,0.16,0.12,0.32,0.17,0.49c0.01,0.04,0.03,0.09,0.04,0.13c0.04,0.15,0.08,0.29,0.11,0.44
		c0,0.02,0.01,0.04,0.01,0.06c0.03,0.16,0.06,0.33,0.07,0.49c0,0.04,0.01,0.08,0.01,0.13c0.01,0.14,0.02,0.28,0.02,0.42
		c0,0.03,0,0.06,0,0.09c0,0.16-0.01,0.33-0.02,0.49c0,0.04-0.01,0.08-0.01,0.12c-0.01,0.14-0.03,0.27-0.05,0.4
		c-0.01,0.04-0.01,0.07-0.02,0.11c-0.03,0.16-0.07,0.32-0.11,0.48c-0.01,0.03-0.02,0.06-0.03,0.1c-0.04,0.13-0.08,0.26-0.13,0.39
		c-0.01,0.02-0.02,0.05-0.03,0.07c-0.04,0-0.07-0.01-0.11-0.01c-0.19-0.02-0.38-0.04-0.57-0.06c-0.06-0.01-0.13-0.01-0.19-0.01
		c-0.24-0.01-0.48-0.03-0.72-0.03c-0.01,0-0.01,0-0.02,0c-0.18,0-0.37,0.01-0.55,0.02c-0.06,0-0.11,0.01-0.17,0.01
		c-0.15,0.01-0.29,0.02-0.43,0.04c-0.05,0-0.1,0.01-0.14,0.01c-0.18,0.02-0.37,0.05-0.55,0.08c-0.04,0.01-0.08,0.01-0.12,0.02
		c-0.15,0.03-0.29,0.05-0.44,0.09c-0.05,0.01-0.11,0.02-0.16,0.04c-0.16,0.04-0.33,0.08-0.49,0.12c-0.02,0-0.04,0.01-0.05,0.01
		c-0.18,0.05-0.36,0.11-0.53,0.17c-0.05,0.02-0.09,0.03-0.14,0.05c-0.14,0.05-0.28,0.1-0.42,0.15c-0.04,0.02-0.08,0.03-0.13,0.05
		c-0.17,0.07-0.34,0.14-0.51,0.22c-0.02,0.01-0.05,0.02-0.07,0.03c-0.15,0.07-0.29,0.14-0.44,0.22c-0.04,0.02-0.09,0.05-0.13,0.07
		c-0.14,0.08-0.29,0.16-0.43,0.25c-0.02,0.01-0.04,0.02-0.06,0.04c-0.16,0.1-0.32,0.2-0.47,0.31c-0.04,0.02-0.07,0.05-0.11,0.07
		c-0.07,0.05-0.13,0.09-0.2,0.14c-1.01-0.73-2.12-1.29-3.3-1.67c-0.04-0.01-0.08-0.03-0.13-0.04c-0.12-0.04-0.25-0.07-0.37-0.11
		c-0.05-0.01-0.11-0.03-0.17-0.04c-0.12-0.03-0.25-0.06-0.37-0.09c-0.05-0.01-0.1-0.02-0.15-0.03c-0.16-0.03-0.33-0.06-0.49-0.09
		c-0.06-0.01-0.13-0.02-0.19-0.03c-0.11-0.02-0.22-0.03-0.33-0.04c-0.07-0.01-0.14-0.01-0.22-0.02c-0.11-0.01-0.22-0.02-0.33-0.02
		c-0.07,0-0.14-0.01-0.2-0.01c-0.15-0.01-0.3-0.01-0.45-0.01c-0.02,0-0.05,0-0.07,0c-3.97,0-7.47,2.02-9.54,5.08
		c-1.24,1.84-1.97,4.05-1.97,6.43c0,0.18,0.01,0.37,0.01,0.55c0,0.06,0.01,0.12,0.01,0.18c0.01,0.12,0.02,0.24,0.03,0.36
		c0.01,0.08,0.02,0.15,0.02,0.23c0.01,0.1,0.02,0.2,0.04,0.31c0.01,0.08,0.02,0.16,0.04,0.24c0.01,0.04,0.01,0.07,0.02,0.11
		l-10.93,0.06c-0.01,0-0.01,0-0.02,0c-0.37,0-0.73-0.06-1.07-0.15c-0.69-0.2-1.32-0.57-1.82-1.1c-0.29-0.31-0.56-0.6-0.83-0.89
		l-7.79-8.34c-0.56-0.62-0.83-0.92-0.99-1.14c-0.06-0.09-0.13-0.18-0.18-0.28c-0.02-0.04-0.05-0.08-0.07-0.13l-0.04-0.06
		c0-0.01-0.01-0.02-0.02-0.02C56.43,51.65,56.22,49.95,56.7,48.31z"/>
</g>
</svg>
